<?xml version="1.0" encoding="utf-8"?>
<!-- Generator: Adobe Illustrator 27.5.0, SVG Export Plug-In . SVG Version: 6.00 Build 0)  -->
<svg version="1.1" xmlns="http://www.w3.org/2000/svg" xmlns:xlink="http://www.w3.org/1999/xlink" x="0px" y="0px"
	 viewBox="0 0 500 500" style="enable-background:new 0 0 500 500;" xml:space="preserve">
<g id="City">
	<polygon id="City_00000033351033865128924610000015206572465984628668_" style="fill:#F0F0F0;" points="44.06,316.114 
		44.06,101.886 74.507,84.302 97.35,97.49 97.35,171.425 108.771,164.831 108.77,147.247 120.191,140.653 120.191,73.735 
		154.455,53.953 169.682,62.745 169.682,83.284 184.911,74.492 200.139,83.284 200.139,121.385 215.367,130.154 215.367,93.619 
		230.595,84.827 249.631,95.817 249.631,139.776 268.665,128.787 268.665,58.451 291.507,45.263 318.156,60.649 318.156,117.713 
		329.578,124.307 329.578,147.414 344.806,156.206 344.806,77.168 363.84,66.178 386.682,79.366 386.682,98.137 398.104,104.73 
		398.104,155.442 413.332,164.234 413.332,129.921 436.174,116.733 447.595,123.327 447.596,316.114 	"/>
</g>
<g id="Floor">
	<g id="Floor_00000173850237320189895190000008489521595599811486_">
		<g>
			<ellipse style="fill:#E0E0E0;" cx="251.792" cy="348.149" rx="228.553" ry="131.955"/>
		</g>
		<path style="fill:#FAFAFA;" d="M32.364,329.174l65.921,38.06l4.589-2.649l-65.921-38.06L32.364,329.174z M218.775,431.5
			l-4.589,2.65l65.921,38.06l4.589-2.649L218.775,431.5z M123.275,381.662l65.921,38.06l4.589-2.649l-65.921-38.06L123.275,381.662z
			"/>
		<g>
			<path style="fill:#BA68C8;" d="M474.328,378.266c17.363-42.949-2.935-89.943-60.924-123.423
				c-57.915-33.438-139.177-45.169-213.49-35.212L474.328,378.266z"/>
			<path style="opacity:0.65;fill:#FFFFFF;" d="M474.328,378.266c17.363-42.949-2.935-89.943-60.924-123.423
				c-57.915-33.438-139.177-45.169-213.49-35.212L474.328,378.266z"/>
		</g>
	</g>
</g>
<g id="Streetlight_00000101804183828166942460000003255430939009804183_">
	<g id="Streetlight">
		<g>
			<path style="fill:#BA68C8;" d="M452.684,224.656c0-1.509,0.997-3.018,2.991-4.17c3.989-2.303,10.455-2.303,14.445,0
				c1.994,1.152,2.991,2.661,2.991,4.17c0,0.29,0,107.149,0,107.438c0,1.509-0.997,3.018-2.991,4.17
				c-3.989,2.303-10.456,2.303-14.445,0c-1.994-1.152-2.991-2.661-2.991-4.17C452.684,331.805,452.684,224.946,452.684,224.656z"/>
			<path style="opacity:0.2;" d="M452.684,224.656c0-1.509,0.997-3.018,2.991-4.17c3.989-2.303,10.455-2.303,14.445,0
				c1.994,1.152,2.991,2.661,2.991,4.17c0,0.29,0,107.149,0,107.438c0,1.509-0.997,3.018-2.991,4.17
				c-3.989,2.303-10.456,2.303-14.445,0c-1.994-1.152-2.991-2.661-2.991-4.17C452.684,331.805,452.684,224.946,452.684,224.656z"/>
			<path style="fill:#BA68C8;" d="M470.119,220.487c-3.989-2.303-10.456-2.303-14.444,0c-1.995,1.152-2.992,2.661-2.992,4.17
				c0,1.509,0.997,3.019,2.992,4.17c3.988,2.303,10.455,2.303,14.444,0c1.994-1.152,2.991-2.661,2.991-4.17
				C473.11,223.147,472.113,221.639,470.119,220.487z"/>
			<path style="fill:#BA68C8;" d="M470.119,220.487c-3.989-2.303-10.456-2.303-14.444,0c-1.995,1.152-2.992,2.661-2.992,4.17
				c0,1.509,0.997,3.019,2.992,4.17c3.988,2.303,10.455,2.303,14.444,0c1.994-1.152,2.991-2.661,2.991-4.17
				C473.11,223.147,472.113,221.639,470.119,220.487z"/>
		</g>
		<g>
			<path style="fill:#263238;" d="M464.571,21.789v202.862c0,0.249-0.16,0.499-0.481,0.695c-0.659,0.374-1.729,0.374-2.371,0
				c-0.339-0.196-0.499-0.445-0.499-0.695V21.789c0-0.927,0.749-1.676,1.675-1.676C463.823,20.114,464.571,20.862,464.571,21.789z"
				/>
			<path style="fill:#263238;" d="M464.411,58.543h-2.649c0-10.295-5.917-20.137-15.44-25.684
				c-10.487-6.109-22.941-5.958-34.168,0.409l-1.306-2.305c12.068-6.847,25.486-6.989,36.808-0.394
				C457.991,36.589,464.411,47.309,464.411,58.543z"/>
		</g>
		<g>
			<path style="fill:#263238;" d="M410.137,41.21l-6.577,4.577c-5.243,3.648-13.698,4.176-18.887,1.181
				c-2.4-1.386-3.575-3.112-3.575-4.832c0-0.633,0.043-3.076,0.043-3.68c-0.001-1.984,1.547-3.952,4.645-5.376l10.367-4.766
				c5.802-2.667,13.409-3.153,16.99-1.086c1.339,0.773,1.967,1.908,1.967,3.216c0,0.633-0.017,3.061-0.007,3.655
				C415.138,36.276,413.415,38.929,410.137,41.21z"/>
			<path style="fill:#37474F;" d="M413.145,27.227c3.581,2.068,2.234,6.701-3.007,10.348l-6.577,4.576
				c-5.242,3.647-13.697,4.176-18.885,1.181c-5.188-2.995-4.69-7.586,1.112-10.253l10.367-4.766
				C401.956,25.646,409.563,25.159,413.145,27.227z"/>
			<g>
				<path style="fill:#455A64;" d="M413.578,30.383c-0.032-0.756-0.441-1.339-1.213-1.796c-1.197-0.693-3.12-1.071-5.388-1.071
					c-3.34,0-7.137,0.835-10.162,2.222l-10.367,4.774c-2.347,1.071-3.718,2.49-3.781,3.875c-0.063,1.229,0.93,2.505,2.789,3.577
					c1.938,1.118,4.537,1.733,7.326,1.733c3.687,0,7.279-1.039,9.879-2.836l6.57-4.585C411.94,34.401,413.641,32.085,413.578,30.383
					z"/>
			</g>
		</g>
	</g>
</g>
<g id="Trees">
	<g id="Pine_00000134935870962766804880000003174698161240715411_">
		<path style="fill:#BA68C8;" d="M397.562,183.774c-9.867,7.289-55.071,6.276-65.26,0c-0.553-2.44-0.599-6.767-0.2-12.475
			l15.421,7.074l-14.746-14.608c0.874-8.209,2.317-18.168,4.159-28.955l5.631,3.023l-5.14-5.923
			c1.059-6.092,2.241-12.414,3.514-18.813l9.176,7.381l-8.194-12.276c0.261-1.335,0.537-2.67,0.813-3.989l12.552,10.357
			l-10.634-19.38c1.964-8.961,4.036-17.769,6.107-25.994l8.194,6.23c-0.199-0.353-3.468-5.923-6.751-11.723
			c2.701-10.265,5.417-19.365,7.948-26.377c0.813-2.225,2.793-3.345,4.772-3.345c1.995,0,3.974,1.12,4.787,3.345
			c2.409,6.675,4.987,15.222,7.565,24.889v0.015l-5.002,10.987l5.969-7.304c1.611,6.184,3.207,12.751,4.757,19.488l-10.726,23.631
			l12.674-14.992c0.199,0.921,0.414,1.857,0.598,2.793l-5.156,12.199l6-8.301c2.178,10.296,4.189,20.654,5.908,30.443
			l-14.869,17.922l16.096-10.741c0.368,2.256,0.721,4.48,1.059,6.644l-7.549,8.347l8.44-2.424
			C397.715,166.649,398.667,178.925,397.562,183.774z"/>
		<path style="opacity:0.35;fill:#FFFFFF;" d="M397.562,183.774c-9.867,7.289-55.071,6.276-65.26,0
			c-0.553-2.44-0.599-6.767-0.2-12.475l15.421,7.074l-14.746-14.608c0.874-8.209,2.317-18.168,4.159-28.955l5.631,3.023l-5.14-5.923
			c1.059-6.092,2.241-12.414,3.514-18.813l9.176,7.381l-8.194-12.276c0.261-1.335,0.537-2.67,0.813-3.989l12.552,10.357
			l-10.634-19.38c1.964-8.961,4.036-17.769,6.107-25.994l8.194,6.23c-0.199-0.353-3.468-5.923-6.751-11.723
			c2.701-10.265,5.417-19.365,7.948-26.377c0.813-2.225,2.793-3.345,4.772-3.345c1.995,0,3.974,1.12,4.787,3.345
			c2.409,6.675,4.987,15.222,7.565,24.889v0.015l-5.002,10.987l5.969-7.304c1.611,6.184,3.207,12.751,4.757,19.488l-10.726,23.631
			l12.674-14.992c0.199,0.921,0.414,1.857,0.598,2.793l-5.156,12.199l6-8.301c2.178,10.296,4.189,20.654,5.908,30.443
			l-14.869,17.922l16.096-10.741c0.368,2.256,0.721,4.48,1.059,6.644l-7.549,8.347l8.44-2.424
			C397.715,166.649,398.667,178.925,397.562,183.774z"/>
		<path style="fill:#37474F;" d="M367.323,141.802l13.764-25.913l-13.998,17.163l-2.158-80.401l-1.681,48.923l-9.802-14.158
			l9.498,22.993l-1.703,49.553l-18.676-17.216l18.428,24.426l-1.564,106.82c0,2.89,9.795,2.89,9.795,0L367.323,141.802
			L367.323,141.802z"/>
	</g>
	<g id="Pine_00000137094625192146058250000004572756282530559664_">
		<path style="fill:#BA68C8;" d="M437.924,215.805c-10.705,6.596-58.265,7.642-68.645,0c-0.942-4.152-0.456-13.473,1.031-25.694
			l13.458,5.743l-12.413-13.782c1.193-8.378,5.905-34.956,6.346-37.253l13.767,7.936L379.1,137.766
			c1.531-7.598,3.166-15.24,4.874-22.705l7.1,3.817l-5.802-9.994c1.767-7.274,5.137-20.312,6.918-26.702l7.23,5.742l-6.111-9.689
			c1.796-6.228,3.578-11.809,5.271-16.506c0.854-2.341,2.93-3.519,5.021-3.519c2.091,0,4.182,1.178,5.021,3.519
			c2.591,7.156,5.359,16.388,8.113,26.784v0.015l-5.61,12.751l7.465-5.654c1.943,7.671,3.858,15.799,5.713,24.104v0.015
			l-9.409,23.736l11.279-15.093c0.663,3.166,1.325,6.346,1.973,9.512l-6.715,13.178l7.686-8.245
			c1.84,9.394,3.504,18.611,4.903,27.21v0.015l-15.358,24.118l16.624-15.888c0.398,2.591,0.751,5.109,1.075,7.524l-11.588,14.224
			l12.501-6.685C438.469,203.982,438.793,212.021,437.924,215.805z"/>
		<g>
			<path style="fill:#37474F;" d="M422.88,158.382l-15.578,22.052l-1.636-47.589l8.406-28.451l-8.716,19.431l-1.753-50.989
				l-1.975,73.576l-8.747-10.449l8.488,20.104l-1.121,41.757l-18.088-17.988l17.76,30.218l-1.201,79.008
				c0,3.288,11.139,3.288,11.139,0l-2.068-94.423L422.88,158.382z"/>
		</g>
	</g>
</g>
<g id="Shadows">
	<path id="Shadow_7_" style="opacity:0.15;" d="M305.676,457.711c-94.883-43.094-177.579-90.982-249.509-144.054
		c-7.42-6.169-5.466-12.292,1.151-16.112c6.617-3.82,17.698-3.616,24.751,0.456l250.006,144.341
		c7.053,4.072,7.407,10.47,0.791,14.29C326.249,460.453,315.777,461.66,305.676,457.711z"/>
	<polygon id="Shadow_00000120529956182845941740000004886835585534114748_" style="opacity:0.2;fill:#BA68C8;" points="
		447.512,344.144 439.565,348.732 238.972,232.923 246.919,228.335 	"/>
</g>
<g id="Fence">
	<g id="Fence_00000038414297071034125640000002203973295395701637_">
		<g id="Fence_00000061460767352778303030000000490159872695208365_">
			<g>
				<path style="fill:#EBEBEB;" d="M433.354,256.094c0-0.684,0.452-1.368,1.356-1.889c1.807-1.044,4.738-1.044,6.546,0
					c0.904,0.522,1.356,1.206,1.356,1.889c0,0.415,0,85.284,0,85.699c0,0.684-0.452,1.368-1.356,1.889
					c-1.808,1.044-4.738,1.044-6.546,0c-0.904-0.522-1.355-1.206-1.355-1.889C433.354,341.377,433.354,256.509,433.354,256.094z"/>
				<path style="fill:#F5F5F5;" d="M441.256,254.204c0.904,0.522,1.356,1.206,1.356,1.889s-0.452,1.368-1.356,1.89
					c-1.808,1.044-4.738,1.044-6.546,0c-0.904-0.522-1.356-1.206-1.356-1.889c0-0.684,0.452-1.368,1.356-1.89
					C436.517,253.161,439.448,253.161,441.256,254.204z"/>
			</g>
			<g>
				<path style="fill:#EBEBEB;" d="M243.208,146.335c0-0.684,0.452-1.368,1.356-1.889c1.808-1.044,4.738-1.044,6.546,0
					c0.904,0.522,1.356,1.205,1.356,1.889c0,0.415,0,85.284,0,85.699c0,0.684-0.452,1.368-1.356,1.89
					c-1.808,1.044-4.738,1.044-6.546,0c-0.904-0.522-1.356-1.206-1.356-1.89C243.208,231.619,243.208,146.751,243.208,146.335z"/>
				<path style="fill:#F5F5F5;" d="M251.11,144.446c0.904,0.522,1.355,1.205,1.355,1.889c0,0.684-0.452,1.368-1.356,1.889
					c-1.808,1.044-4.738,1.044-6.546,0c-0.904-0.522-1.356-1.206-1.356-1.889c0-0.684,0.452-1.368,1.356-1.889
					C246.372,143.402,249.302,143.402,251.11,144.446z"/>
			</g>
			<g>
				<g>
					<polygon style="fill:#EBEBEB;" points="434.705,279.503 434.705,269.616 244.567,159.853 244.567,169.739 					"/>
				</g>
				<polygon style="fill:#E0E0E0;" points="434.705,279.503 434.705,269.616 437.558,267.969 437.558,277.855 				"/>
				<g>
					<polygon style="fill:#F5F5F5;" points="244.567,159.853 247.42,158.205 437.558,267.969 434.705,269.616 					"/>
				</g>
			</g>
			<g>
				<g>
					<polygon style="fill:#EBEBEB;" points="434.705,323.91 434.705,314.024 244.567,204.26 244.567,214.146 					"/>
				</g>
				<polygon style="fill:#E0E0E0;" points="434.705,323.91 434.705,314.024 437.558,312.376 437.558,322.262 				"/>
				<g>
					<polygon style="fill:#F5F5F5;" points="244.567,204.26 247.42,202.612 437.558,312.376 434.705,314.024 					"/>
				</g>
			</g>
			<polygon style="fill:#E0E0E0;" points="244.567,159.853 244.567,169.739 252.465,174.299 252.465,176.694 243.825,170.166 			"/>
			<polygon style="fill:#E0E0E0;" points="244.567,204.26 244.567,214.146 252.465,218.706 252.465,221.102 243.825,214.574 			"/>
			<path style="fill:#FAFAFA;" d="M433.004,272.29c0.1-0.058,0.162-0.182,0.162-0.358c0-0.353-0.248-0.783-0.554-0.959
				c-0.153-0.088-0.291-0.097-0.392-0.039c-0.1,0.058-0.162,0.182-0.162,0.359c0,0.353,0.248,0.783,0.554,0.959
				C432.765,272.34,432.904,272.348,433.004,272.29z M432.221,274.596c-0.1,0.058-0.162,0.182-0.162,0.358
				c0,0.353,0.248,0.783,0.554,0.959c0.153,0.088,0.291,0.097,0.392,0.039c0.1-0.058,0.162-0.182,0.162-0.359
				c0-0.353-0.248-0.783-0.554-0.959C432.459,274.547,432.321,274.538,432.221,274.596z"/>
			<path style="fill:#FAFAFA;" d="M433.004,316.737c0.1-0.058,0.162-0.182,0.162-0.359c0-0.353-0.248-0.783-0.554-0.959
				c-0.153-0.088-0.291-0.097-0.392-0.039c-0.1,0.058-0.162,0.182-0.162,0.358c0,0.353,0.248,0.783,0.554,0.959
				C432.765,316.787,432.904,316.795,433.004,316.737z M432.221,319.043c-0.1,0.058-0.162,0.182-0.162,0.359
				c0,0.353,0.248,0.783,0.554,0.959c0.153,0.088,0.291,0.097,0.392,0.039c0.1-0.058,0.162-0.182,0.162-0.359
				c0-0.353-0.248-0.783-0.554-0.959C432.459,318.994,432.321,318.985,432.221,319.043z"/>
			<path style="fill:#FAFAFA;" d="M247.429,165.067c0.1-0.058,0.162-0.182,0.162-0.359c0-0.353-0.248-0.783-0.554-0.959
				c-0.153-0.088-0.291-0.097-0.392-0.039c-0.1,0.058-0.162,0.182-0.162,0.358c0,0.353,0.248,0.783,0.554,0.959
				C247.19,165.117,247.329,165.125,247.429,165.067z M246.646,167.373c-0.1,0.058-0.162,0.182-0.162,0.359
				c0,0.353,0.248,0.783,0.554,0.959c0.153,0.088,0.291,0.097,0.391,0.039c0.1-0.058,0.162-0.182,0.162-0.359
				c0-0.353-0.248-0.783-0.554-0.959C246.885,167.324,246.746,167.315,246.646,167.373z"/>
			<path style="fill:#FAFAFA;" d="M247.429,209.514c0.1-0.058,0.162-0.182,0.162-0.359c0-0.353-0.248-0.783-0.554-0.959
				c-0.153-0.088-0.291-0.097-0.392-0.039c-0.1,0.058-0.162,0.182-0.162,0.359c0,0.353,0.248,0.783,0.554,0.959
				C247.19,209.564,247.329,209.572,247.429,209.514z M246.646,211.82c-0.1,0.058-0.162,0.182-0.162,0.359
				c0,0.353,0.248,0.783,0.554,0.959c0.153,0.088,0.291,0.097,0.391,0.039c0.1-0.058,0.162-0.182,0.162-0.358
				c0-0.353-0.248-0.783-0.554-0.959C246.885,211.771,246.746,211.762,246.646,211.82z"/>
		</g>
		<g id="Grass_00000007429285411580803970000016870891837022147733_">
			<path style="fill:#BA68C8;" d="M458.445,332.507c-5.207,3.294-9.627,7.81-12.84,13.067h-10.549
				c-0.047-2.168,1.036-17.855,14.031-28.8c-4.183,6.685-6.012,14.879-6.619,22.742
				C445.948,335.016,452.759,332.338,458.445,332.507z"/>
			<g style="opacity:0.15;">
				<path d="M442.468,339.516c-0.194,2.621-0.275,4.73-0.309,6.058h-4.083c0,0,1.513-18.852,11.011-28.8
					C444.904,323.459,443.075,331.653,442.468,339.516z"/>
				<path d="M445.605,345.574h-3.366c2.423-6.371,9.456-11.165,16.207-13.067C453.238,335.801,448.818,340.317,445.605,345.574z"/>
			</g>
		</g>
	</g>
</g>
<g id="Character">
	<g id="Character_00000033339075799049430770000000504547426890379437_">
		<g id="Wheel_00000138546082462202998080000007764373501152993468_">
			<g>
				<path style="fill:#BA68C8;" d="M287.497,367.567l-0.145-0.306c-5.599-11.798-9.439-24.352-11.398-37.263l-6.978-45.985
					c-0.136-0.818-0.542-3.484-2.813-2.095c-2.203,1.347-2.065,2.135-1.945,2.97l6.907,45.481
					c2.159,14.217,6.597,27.992,13.144,40.794l0,0c0.606,0.576,1.792,0.743,3.013-0.355
					C288.504,369.726,288.034,368.655,287.497,367.567z"/>
			</g>
			<g>
				<g>
					<path style="fill:#455A64;" d="M308.15,438.409c-6.858,0-14.271-2.141-22.033-6.364l-3.318-1.813
						c-28.574-15.54-52.486-54.652-53.306-87.188c-0.981-13.51,1.387-23.632,7.238-30.967c5.739-7.774,12.192-11.353,23.027-12.777
						c1.066-0.157,2.19-0.251,3.446-0.288c0,0,0.317-0.018,0.343-0.019l0.593-0.003c6.857,0,14.267,2.141,22.021,6.362l3.318,1.814
						c28.575,15.541,52.486,54.652,53.305,87.187l0.096,3.782c0.247,9.817-1.753,19.315-4.977,23.635
						c-0.245,0.369-0.458,0.724-0.671,1.079c-0.325,0.545-0.633,1.059-0.998,1.542c-5.786,8.346-12.393,12.18-23.578,13.69
						l-0.293,0.048c-0.185,0.029-0.362,0.056-0.55,0.072c-0.4,0.059-0.768,0.091-1.138,0.123c-0.138,0.015-0.256,0.017-0.395,0.021
						c-0.285,0.022-0.559,0.039-0.832,0.052L308.15,438.409z M260.231,307.899c-7.227,0-13.523,2.539-18.207,7.341
						c-6.189,6.348-9.299,16.184-8.99,28.444c0.78,30.995,23.574,68.276,50.813,83.105c7.488,4.077,14.647,6.144,21.279,6.144
						c7.229,0,13.525-2.539,18.208-7.342c6.19-6.348,9.299-16.183,8.99-28.443c-0.78-30.995-23.575-68.276-50.814-83.105
						C274.022,309.967,266.862,307.899,260.231,307.899z"/>
					<path style="fill:#37474F;" d="M264.14,299.49c6.772,0,14.101,2.12,21.781,6.3l3.321,1.815
						c28.433,15.464,52.228,54.384,53.043,86.76l0.095,3.782c0.245,9.713-1.715,19.086-4.877,23.324l-0.017,0.023l-0.016,0.024
						c-0.233,0.352-0.449,0.713-0.665,1.075c-0.319,0.533-0.62,1.036-0.993,1.53c-5.684,8.199-12.195,11.974-23.236,13.465
						l-0.151,0.026c-0.04,0.007-0.08,0.015-0.157,0.025c-0.154,0.024-0.319,0.05-0.494,0.065l-0.033,0.003l-0.033,0.005
						c-0.353,0.053-0.719,0.085-1.095,0.118c-0.114,0.012-0.219,0.014-0.343,0.017l-0.027,0.001l-0.027,0.002
						c-0.259,0.021-0.516,0.037-0.777,0.049l-0.946,0.01l-0.34,0.002c-6.774,0-14.107-2.12-21.794-6.302l-3.321-1.815
						c-28.433-15.464-52.228-54.384-53.046-86.807c-0.97-13.356,1.363-23.364,7.155-30.626c5.709-7.735,11.856-11.14,22.694-12.566
						c1.036-0.153,2.142-0.246,3.392-0.283c0.091-0.004,0.181-0.009,0.272-0.014c0.007,0,0.014-0.001,0.021-0.001l0.265-0.003
						L264.14,299.49 M305.125,433.434c7.366,0,13.785-2.591,18.565-7.492c6.286-6.446,9.444-16.407,9.132-28.805
						c-0.784-31.154-23.696-68.626-51.074-83.532c-7.562-4.117-14.801-6.205-21.518-6.205c-7.366,0.001-13.786,2.592-18.566,7.494
						c-6.286,6.446-9.443,16.406-9.131,28.804c0.784,31.154,23.696,68.626,51.074,83.532
						C291.17,431.346,298.409,433.434,305.125,433.434 M263.788,298.481c-0.201,0.005-0.398,0.022-0.598,0.03
						c-1.193,0.035-2.363,0.125-3.498,0.293c-10.644,1.4-17.303,4.766-23.352,12.961c-6.948,8.711-8.147,20.285-7.348,31.292
						c0.824,32.741,24.799,71.968,53.565,87.613l3.319,1.814c8.032,4.369,15.574,6.424,22.273,6.424
						c0.118,0,0.234-0.001,0.351-0.002l-0.01,0.013c0.068-0.002,0.136-0.008,0.204-0.01c0.008,0,0.016,0,0.024,0
						c0.071,0,0.144,0.005,0.215,0.005c0.011,0,0.022,0,0.033,0c0.45-0.012,0.889-0.034,1.327-0.069
						c0.154-0.004,0.284-0.007,0.426-0.022c0.379-0.033,0.757-0.066,1.135-0.124c0.201-0.017,0.391-0.045,0.568-0.073
						c0.102-0.012,0.2-0.034,0.301-0.049c10.994-1.485,17.903-5.22,23.91-13.884c0.627-0.829,1.098-1.756,1.671-2.623
						c3.263-4.373,5.328-13.905,5.076-23.947l-0.095-3.782c-0.824-32.741-24.798-71.968-53.565-87.613l-3.319-1.814
						c-8.024-4.367-15.567-6.423-22.261-6.423c-0.121,0-0.242,0.001-0.362,0.002L263.788,298.481L263.788,298.481z M305.125,432.434
						c-6.326,0-13.456-1.954-21.04-6.083c-27.14-14.776-49.775-51.794-50.552-82.679c-0.56-22.265,10.385-35.271,26.698-35.272
						c6.326-0.001,13.456,1.954,21.04,6.083c27.14,14.776,49.775,51.794,50.552,82.679
						C332.383,419.427,321.439,432.434,305.125,432.434L305.125,432.434z"/>
				</g>
				<path style="fill:#37474F;" d="M282.799,310.163l-3.32-1.814c-14.227-7.743-26.956-8.265-36.095-2.852
					c-12.73,7.597-15.235,23.91-14.392,37.56c0.824,32.741,24.799,71.968,53.565,87.613l3.319,1.814
					c8.358,4.546,16.191,6.603,23.09,6.429c0.45-0.011,0.889-0.034,1.327-0.069c0.154-0.004,0.284-0.007,0.427-0.023
					c0.378-0.033,0.757-0.066,1.135-0.123c0.201-0.017,0.391-0.045,0.568-0.074c0.379-0.045,0.756-0.114,1.122-0.183
					c0.343-0.056,0.673-0.124,0.991-0.203c0.33-0.067,0.649-0.135,0.955-0.226c0.613-0.158,1.213-0.339,1.789-0.543
					c0.247-0.078,0.494-0.167,0.741-0.256c0.282-0.102,0.552-0.204,0.811-0.317c0.235-0.101,0.458-0.19,0.68-0.302
					c0.493-0.214,0.974-0.44,1.441-0.701c0.234-0.113,0.468-0.249,0.702-0.385c0.058-0.037,0.117-0.074,0.187-0.112
					c0.094-0.038,0.175-0.099,0.269-0.161c0.152-0.075,0.292-0.173,0.444-0.26c8.979-5.671,14.311-17.227,13.903-33.42l-0.095-3.781
					C335.54,365.036,311.553,325.809,282.799,310.163z M284.086,426.351c-27.14-14.776-49.775-51.794-50.552-82.679
					c-0.777-30.899,20.597-43.965,47.737-29.189c27.14,14.776,49.775,51.794,50.553,82.679
					C332.6,428.06,311.226,441.127,284.086,426.351z"/>
				<g>
					<path style="fill:#263238;" d="M319.913,417.521c-7.429,9.309-20.673,10.941-35.983,2.616
						c-24.129-13.128-44.247-46.033-44.938-73.5c-0.309-12.27,3.32-21.376,9.581-26.532c-4.319,5.372-6.705,13.294-6.452,23.351
						c0.691,27.454,20.809,60.358,44.939,73.5C300.393,424.217,312.171,423.907,319.913,417.521z"/>
				</g>
				<path style="fill:#455A64;" d="M281.268,314.483c-27.142-14.773-48.514-1.707-47.736,29.185
					c0.777,30.891,23.41,67.909,50.551,82.682c27.141,14.772,48.513,1.706,47.736-29.185
					C331.042,366.275,308.41,329.257,281.268,314.483z M283.927,420.134c-24.125-13.131-44.242-46.034-44.933-73.493
					c-0.691-27.459,18.307-39.074,42.432-25.942c24.125,13.131,44.242,46.035,44.933,73.493
					C327.05,421.65,308.052,433.265,283.927,420.134z"/>
				<path style="fill:#EBEBEB;" d="M324.562,380.568c-0.111-0.482-0.23-0.966-0.351-1.449l-37.759-9.107l33.435-3.835
					c-0.177-0.424-0.349-0.85-0.532-1.273l-33.79,3.876l27.17-16.611c-0.23-0.377-0.469-0.748-0.704-1.122l-27.158,16.603
					l18.756-28.164c-0.296-0.353-0.592-0.704-0.892-1.052l-18.557,27.865l9.017-37.39c-0.377-0.322-0.754-0.644-1.134-0.957
					l-8.869,36.776l-1.098-43.644c-0.225-0.126-0.447-0.262-0.673-0.385c-0.226-0.123-0.447-0.228-0.672-0.347l1.079,42.9
					l-10.81-46.796c-0.485-0.13-0.965-0.243-1.443-0.35l10.665,46.165l-19.567-46.897c-0.464,0.036-0.918,0.093-1.371,0.154
					l19.425,46.558l-26.971-44.115c-0.388,0.212-0.771,0.432-1.144,0.668l26.984,44.134l-32.751-38.705
					c-0.269,0.365-0.525,0.747-0.777,1.134l33.004,39.005l-36.604-30.849c-0.13,0.467-0.256,0.938-0.369,1.422l37.127,31.289
					l-38.241-20.813c0,0.46-0.008,0.914,0.004,1.383c0.001,0.043,0.005,0.087,0.006,0.13l38.921,21.183L240.5,358.93
					c0.102,0.48,0.205,0.96,0.316,1.441l38.052,9.177l-33.911,3.891c0.171,0.426,0.352,0.849,0.53,1.274l34.267-3.932
					l-27.701,16.936c0.226,0.379,0.447,0.761,0.678,1.138l27.715-16.944l-19.217,28.856c0.293,0.355,0.594,0.702,0.892,1.052
					l19.018-28.557l-9.266,38.422c0.377,0.325,0.75,0.655,1.13,0.971l9.122-37.822l1.13,44.918c0.225,0.126,0.447,0.262,0.672,0.385
					c0.225,0.123,0.447,0.228,0.672,0.347l-1.112-44.173l11.121,48.147c0.484,0.125,0.961,0.229,1.438,0.333l-10.971-47.5
					l20.075,48.117c0.46-0.045,0.919-0.093,1.367-0.163l-19.93-47.769l27.56,45.078c0.381-0.224,0.75-0.465,1.116-0.713
					l-27.544-45.053l33.256,39.304c0.259-0.378,0.516-0.758,0.758-1.157l-33.489-39.58l36.901,31.1
					c0.118-0.478,0.225-0.965,0.326-1.459l-37.38-31.504l38.268,20.829c-0.001-0.043,0.001-0.084,0-0.126
					c-0.012-0.47-0.043-0.945-0.066-1.418L287.4,371.605L324.562,380.568z"/>
				<g>
					<path style="fill:#E0E0E0;" d="M284.397,357.146c-3.009-1.64-5.677-1.676-7.55-0.436c-0.387,0.259-0.859,0.486-1.357,0.8
						c-0.139,0.081-0.268,0.177-0.398,0.271c-0.023,0.017-0.046,0.03-0.069,0.047c-0.008,0.007-0.016,0.015-0.025,0.022
						c-0.175,0.133-0.342,0.279-0.501,0.436c-0.036,0.035-0.071,0.072-0.106,0.108c-0.14,0.147-0.274,0.302-0.4,0.469
						c-0.047,0.061-0.091,0.126-0.136,0.19c-0.108,0.155-0.213,0.315-0.309,0.485c-0.052,0.092-0.1,0.19-0.149,0.287
						c-0.079,0.159-0.158,0.318-0.227,0.488c-0.052,0.127-0.096,0.263-0.143,0.396c-0.054,0.158-0.111,0.313-0.156,0.48
						c-0.046,0.166-0.081,0.343-0.119,0.517c-0.032,0.152-0.069,0.299-0.095,0.457c-0.036,0.219-0.057,0.451-0.08,0.682
						c-0.013,0.13-0.033,0.253-0.042,0.387c-0.024,0.373-0.033,0.76-0.023,1.162c0.168,6.66,5.051,14.642,10.903,17.831
						c0.366,0.199,0.727,0.374,1.082,0.527c0.213,0.092,0.42,0.158,0.628,0.233c0.142,0.051,0.288,0.114,0.428,0.158
						c0.144,0.045,0.283,0.071,0.425,0.108c0.201,0.052,0.403,0.112,0.598,0.148c0.079,0.015,0.153,0.018,0.231,0.03
						c0.254,0.04,0.508,0.077,0.752,0.091c0.017,0.001,0.034-0.001,0.051,0c1.296,0.064,2.442-0.246,3.384-0.883
						c0.5-0.31,0.944-0.541,1.508-0.897c1.806-1.152,2.879-3.494,2.797-6.76C295.133,368.317,290.249,360.335,284.397,357.146z
						 M281.919,377.294c-1.826-1.353-4.442-5.515-5.49-7.849c0.553,0.35,1.185,0.745,1.854,1.07
						c2.752,1.337,2.636-0.564,3.775,0.728c1.091,1.228,1.01,4.539,0.186,6.233C282.138,377.434,282.031,377.377,281.919,377.294z
						 M286.905,364.785c-0.166,0.064-0.313,0.135-0.441,0.213c-0.287,0.172-1.448,0.873-1.579,0.951
						c-0.394,0.236-0.627,0.527-0.78,0.818c-1.378-1.336-3.05-5.675-2.979-7.737c2.362,0.741,6.332,3.893,6.964,5.133
						c0.057,0.112,0.092,0.208,0.119,0.297C287.795,364.527,287.343,364.616,286.905,364.785z M278.941,363.604
						c0.956,3.135,2.29,3.586,2.401,4.613c-2.063-0.28-5.452-2.194-5.726-4.169c-0.261-1.842,0.688-4.072,1.672-5.344
						C278.168,359.063,278.16,361.038,278.941,363.604z M285.264,380.015c-1.113-0.967,0.071-1.966,0.576-4.037
						c0.314-1.283,0.098-2.263-0.104-2.992c2.18,1.631,5.502,5.984,4.708,7.319c-0.028,0.047-0.069,0.088-0.102,0.133
						C288.559,380.954,286.042,380.702,285.264,380.015z M290.191,373.021c-2.348-2.977-3.221-1.909-3.811-3.515
						c-0.286-0.779,0.051-1.575,0.682-2.196c1.207-0.394,2.575-0.221,3.319,1.023c1.157,1.941,1.863,5.516,1.973,7.744
						C291.791,375.281,291.084,374.145,290.191,373.021z"/>
					<path style="opacity:0.2;" d="M284.397,357.146c-3.009-1.64-5.677-1.676-7.55-0.436c-0.387,0.259-0.859,0.486-1.357,0.8
						c-0.139,0.081-0.268,0.177-0.398,0.271c-0.023,0.017-0.046,0.03-0.069,0.047c-0.008,0.007-0.016,0.015-0.025,0.022
						c-0.175,0.133-0.342,0.279-0.501,0.436c-0.036,0.035-0.071,0.072-0.106,0.108c-0.14,0.147-0.274,0.302-0.4,0.469
						c-0.047,0.061-0.091,0.126-0.136,0.19c-0.108,0.155-0.213,0.315-0.309,0.485c-0.052,0.092-0.1,0.19-0.149,0.287
						c-0.079,0.159-0.158,0.318-0.227,0.488c-0.052,0.127-0.096,0.263-0.143,0.396c-0.054,0.158-0.111,0.313-0.156,0.48
						c-0.046,0.166-0.081,0.343-0.119,0.517c-0.032,0.152-0.069,0.299-0.095,0.457c-0.036,0.219-0.057,0.451-0.08,0.682
						c-0.013,0.13-0.033,0.253-0.042,0.387c-0.024,0.373-0.033,0.76-0.023,1.162c0.168,6.66,5.051,14.642,10.903,17.831
						c0.366,0.199,0.727,0.374,1.082,0.527c0.213,0.092,0.42,0.158,0.628,0.233c0.142,0.051,0.288,0.114,0.428,0.158
						c0.144,0.045,0.283,0.071,0.425,0.108c0.201,0.052,0.403,0.112,0.598,0.148c0.079,0.015,0.153,0.018,0.231,0.03
						c0.254,0.04,0.508,0.077,0.752,0.091c0.017,0.001,0.034-0.001,0.051,0c1.296,0.064,2.442-0.246,3.384-0.883
						c0.5-0.31,0.944-0.541,1.508-0.897c1.806-1.152,2.879-3.494,2.797-6.76C295.133,368.317,290.249,360.335,284.397,357.146z
						 M281.919,377.294c-1.826-1.353-4.442-5.515-5.49-7.849c0.553,0.35,1.185,0.745,1.854,1.07
						c2.752,1.337,2.636-0.564,3.775,0.728c1.091,1.228,1.01,4.539,0.186,6.233C282.138,377.434,282.031,377.377,281.919,377.294z
						 M286.905,364.785c-0.166,0.064-0.313,0.135-0.441,0.213c-0.287,0.172-1.448,0.873-1.579,0.951
						c-0.394,0.236-0.627,0.527-0.78,0.818c-1.378-1.336-3.05-5.675-2.979-7.737c2.362,0.741,6.332,3.893,6.964,5.133
						c0.057,0.112,0.092,0.208,0.119,0.297C287.795,364.527,287.343,364.616,286.905,364.785z M278.941,363.604
						c0.956,3.135,2.29,3.586,2.401,4.613c-2.063-0.28-5.452-2.194-5.726-4.169c-0.261-1.842,0.688-4.072,1.672-5.344
						C278.168,359.063,278.16,361.038,278.941,363.604z M285.264,380.015c-1.113-0.967,0.071-1.966,0.576-4.037
						c0.314-1.283,0.098-2.263-0.104-2.992c2.18,1.631,5.502,5.984,4.708,7.319c-0.028,0.047-0.069,0.088-0.102,0.133
						C288.559,380.954,286.042,380.702,285.264,380.015z M290.191,373.021c-2.348-2.977-3.221-1.909-3.811-3.515
						c-0.286-0.779,0.051-1.575,0.682-2.196c1.207-0.394,2.575-0.221,3.319,1.023c1.157,1.941,1.863,5.516,1.973,7.744
						C291.791,375.281,291.084,374.145,290.191,373.021z"/>
					<path style="fill:#E0E0E0;" d="M282.808,358.095c-5.852-3.181-10.464-0.363-10.296,6.297
						c0.168,6.66,5.051,14.642,10.903,17.831c5.852,3.181,10.456,0.363,10.288-6.297
						C293.536,369.266,288.66,361.284,282.808,358.095z M280.238,358.871c2.067-0.026,7.13,3.877,7.852,5.292
						c0.722,1.423-1.108,0.937-2.757,1.57c-2.098,0.799-1.044,2.822-2.3,2.339C281.198,367.364,278.18,358.889,280.238,358.871z
						 M277.118,358.632c1.068,0.154,0.991,2.24,1.823,4.972c1.056,3.464,2.579,3.649,2.398,4.957
						c-0.269,1.919-6.915-0.769-7.303-3.573C273.649,362.193,276.051,358.471,277.118,358.632z M280.339,378.235
						c-2.298-1.701-5.885-7.906-5.944-9.225c-0.059-1.319,1.727,0.454,3.889,1.506c2.752,1.337,2.636-0.564,3.775,0.728
						C283.735,373.132,282.646,379.944,280.339,378.235z M290.443,380.305c-1.037,1.741-5.645,1.626-6.759,0.659
						c-1.105-0.976,0.079-1.966,0.584-4.046c0.637-2.632-0.95-3.999-0.062-4.51C285.5,371.664,291.48,378.563,290.443,380.305z
						 M288.619,373.961c-2.347-2.968-3.221-1.909-3.811-3.515c-0.874-2.345,3.908-4.893,5.573-2.113
						c1.657,2.78,2.394,8.92,1.769,9.638C291.526,378.691,290.471,376.299,288.619,373.961z"/>
				</g>
				<path style="fill:#455A64;" d="M282.82,376.12c2.768,1.506,4.947,0.174,4.867-2.976c-0.079-3.15-2.387-6.924-5.154-8.431
					c-2.768-1.506-4.947-0.174-4.868,2.976C277.745,370.84,280.052,374.614,282.82,376.12z"/>
			</g>
		</g>
		<g id="Leg_00000087381419343594045700000015573094823466540461_">
			<g id="XMLID_00000016782894764320482990000011816659834972813440_">
				<path id="XMLID_00000169529603286083336700000009663580123252539291_" style="fill:#FFA8A7;" d="M214.292,268.085
					c-2.65,1.808-14.229,8.16-16.298,9.983c-1.213,1.069-2.558,2.129-3.644,3.377c-0.564,0.647-1.089,1.359-1.448,2.143
					c-0.325,0.709-0.315,1.57-0.42,2.344c-1.102,8.113,1.029,16.208,1.07,24.319c0.002,0.316-0.004,0.647-0.155,0.924
					c-0.309,0.566-1.066,0.671-1.71,0.692c-2.398,0.078-4.804-0.08-7.172-0.47c-3.007-0.496-6.16-1.505-8.013-3.924
					c-1.376-1.796-1.834-4.109-2.262-6.33c-0.541-2.809-1.104-5.643-2.264-8.258c-0.618-1.394-1.373-2.745-2.136-4.064
					c-0.557-0.963-1.362-1.651-1.861-2.661c-1.072-2.171-1.981-4.659-1.43-7.105c0.17-0.754,0.474-1.473,0.826-2.161
					c2.387-4.668,7.076-8.472,11.287-11.431c5.497-3.863,18.176-15.712,18.176-15.712L214.292,268.085z"/>
				<path style="fill:#BA68C8;" d="M205.967,273.333l-6.798,3.864c0,0-6.951-2.861-10.435-8.502
					c-3.484-5.64-2.689-9.221-2.689-9.221l6.419-6.778L205.967,273.333z"/>
				<path style="opacity:0.35;" d="M205.967,273.333l-6.798,3.864c0,0-6.951-2.861-10.435-8.502
					c-3.484-5.64-2.689-9.221-2.689-9.221l6.419-6.778L205.967,273.333z"/>
				<g>
					<path style="fill:#263238;" d="M200.283,328.888c0,0-1.508,2.697-3.275,2.896c-4.807,0.279-10.731-1.582-17.209-7.957
						c-6.465-6.362-9.551-13.971-10.497-18.447c-0.946-4.476-1.337-7.436-4.171-12.135c-1.995-3.308-4.283-7.241-4.507-8.856
						c-0.224-1.616,1.676-3.672,1.676-3.672L200.283,328.888z"/>
					<path id="XMLID_00000001627757221037897340000007082293768488575628_" style="fill:#455A64;" d="M177.869,265.034
						c-0.548-0.179-1.032-0.161-1.542,0.144c-0.743,0.444-1.473,1.353-2.009,2.032c-1.243,1.573-3.071,2.768-4.592,4.075
						c-1.543,1.325-3.198,2.547-4.448,4.162c-1.298,1.677-2.339,3.539-3.074,5.529c-0.361,3.174,2.029,5.756,4.146,9.364
						c2.162,3.686,3.828,8.943,4.931,13.985c1.142,5.219,5.778,13.54,10.301,17.281c5.352,4.426,12.696,7.84,16.007,6.685
						c4.097-1.43,7.912-5.446,2.895-15.481c-1.729-3.457-2.824-6.993-3.947-10.652c-0.96-3.129-1.946-6.237-2.319-9.502
						c-0.414-3.629,0.797-7.37,1.969-10.819c0.171-0.505,0.353-1.031,0.28-1.559c-0.071-0.517-0.381-0.973-0.744-1.347
						c-0.604-0.62-1.365-1.061-2.128-1.47c-3.225-1.733-6.667-3.062-10.22-3.946c-0.961-0.239-2.083-0.418-2.955,0.178
						c-0.84,0.575-1.257,1.599-1.718,2.465c-0.459,0.863-1.258,0.988-1.721-0.101c-0.609-1.432,0.47-2.977,0.73-4.511
						c0.313-1.841-0.708-3.745,0.95-6.083C178.661,265.462,178.118,265.115,177.869,265.034z"/>
					<path style="fill:#37474F;" d="M171.281,304.324c-0.485-2.216-1.084-4.466-1.781-6.613l0.006-0.006
						c0,0,4.848,13.055,10.608,13.806c3.711,0.484,3.817-2.82,4.582-3.001c4.435-1.054,13.293,0.487,15.59,3.733l0,0
						c6.518,10.265,3.827,12.243-0.002,16.646c-5.945,1.609-11.857-1.284-18.735-7.051
						C177.051,318.066,172.423,309.543,171.281,304.324z"/>
					<path style="fill:#37474F;" d="M185.513,306.22c-1.801-3.185-3.116-6.634-4.166-10.131c-1.492-4.968-2.454-10.09-3.131-15.229
						c-0.177-1.343-0.327-2.69-0.465-4.039c-0.284-0.041-0.562-0.274-0.771-0.765c-0.609-1.432,0.47-2.977,0.731-4.511
						c0.313-1.841-0.708-3.745,0.95-6.084c0,0-0.543-0.347-0.792-0.428c-0.548-0.179-1.031-0.161-1.542,0.144
						c-0.743,0.444-1.473,1.353-2.009,2.032c-0.122,2.01,0.327,2.692,0.142,4.601c-0.305,3.14,0.186,9.845,2.175,18.137
						c1.906,7.949,6.376,19.384,7.904,20.352C186.066,311.27,188.878,312.169,185.513,306.22z"/>
					<g>
						<g>
							<path style="fill:#263238;" d="M184.124,308.805c-0.11-0.092-0.191-0.222-0.222-0.378c-0.072-0.356,0.147-0.706,0.49-0.781
								c2.788-0.623,12.854,0.674,16.429,4.232c0.27,0.266,0.29,0.7,0.046,0.966c-0.242,0.267-0.622,0.283-0.926,0.001
								c-3.345-3.336-13.072-4.404-15.29-3.908C184.459,308.979,184.268,308.925,184.124,308.805z"/>
						</g>
						<g>
							<path style="fill:#263238;" d="M181.986,302.491c-0.107-0.088-0.185-0.213-0.214-0.362c-0.068-0.342,0.15-0.678,0.484-0.753
								c2.729-0.61,12.563,0.597,16.039,4c0.261,0.254,0.278,0.671,0.038,0.927c-0.239,0.258-0.638,0.266-0.905,0.005
								c-3.252-3.188-12.753-4.18-14.926-3.694C182.313,302.657,182.125,302.606,181.986,302.491z"/>
						</g>
						<g>
							<path style="fill:#263238;" d="M179.831,296.575c-0.106-0.086-0.184-0.209-0.213-0.355c-0.067-0.335,0.152-0.665,0.486-0.739
								c2.73-0.599,12.553,0.577,16.001,3.918c0.26,0.249,0.275,0.658,0.034,0.909c-0.239,0.253-0.633,0.264-0.904,0.005
								c-3.231-3.129-12.719-4.094-14.89-3.617C180.157,296.738,179.97,296.688,179.831,296.575z"/>
						</g>
						<g>
							<path style="fill:#263238;" d="M178.968,291.11c-0.105-0.083-0.181-0.203-0.208-0.346c-0.063-0.328,0.159-0.654,0.492-0.73
								c2.723-0.619,12.494,0.44,15.872,3.663c0.255,0.241,0.265,0.641,0.023,0.89c-0.241,0.251-0.634,0.263-0.899,0.015
								c-3.172-3.025-12.603-3.872-14.77-3.379C179.29,291.266,179.105,291.219,178.968,291.11z"/>
						</g>
						<g>
							<path style="fill:#263238;" d="M177.996,284.588c-0.094-0.085-0.158-0.204-0.172-0.344c-0.034-0.327,0.218-0.643,0.559-0.707
								c3.913-0.728,13.3,1.671,16.383,5.053c0.232,0.253,0.201,0.651-0.068,0.887c-0.269,0.237-0.66,0.223-0.906-0.03
								c-2.776-3.062-11.803-5.37-15.286-4.725C178.309,284.761,178.123,284.704,177.996,284.588z"/>
						</g>
					</g>
				</g>
				<path style="fill:#BA68C8;" d="M252.233,219.166c-5.905-11.827-20.572-30.639-34.757-46.227
					c-1.76-10.949-3.851-18.199-3.851-18.199s-34.172,40.927-27.527,56.729l27.527,18.33c-5.043,3.632-9.397,6.991-15.123,13.533
					c-3.876,4.428-7.644,8.855-9.445,10.98c-0.717,0.847-0.952,1.992-0.62,3.051c1.197,3.821,4.914,12.91,14.099,17.261
					c1.012,0.479,2.201,0.392,3.141-0.217c6.179-4.009,30.347-19.727,37.702-25.046
					C249.857,244.673,260.739,236.202,252.233,219.166z"/>
				<path style="opacity:0.2;" d="M252.233,219.166c-5.905-11.827-20.572-30.639-34.757-46.227
					c-1.76-10.949-3.851-18.199-3.851-18.199s-34.172,40.927-27.527,56.729l27.527,18.33c-5.043,3.632-9.397,6.991-15.123,13.533
					c-3.876,4.428-7.644,8.855-9.445,10.98c-0.717,0.847-0.952,1.992-0.62,3.051c1.197,3.821,4.914,12.91,14.099,17.261
					c1.012,0.479,2.201,0.392,3.141-0.217c6.179-4.009,30.347-19.727,37.702-25.046
					C249.857,244.673,260.739,236.202,252.233,219.166z"/>
				<path style="opacity:0.2;" d="M198.502,243.332c-3.876,4.428-7.644,8.855-9.445,10.98c-0.717,0.847-0.952,1.992-0.62,3.051
					c1.197,3.821,4.914,12.91,14.099,17.261c1.012,0.479,2.201,0.392,3.141-0.217c2.174-1.411,6.579-4.274,11.692-7.621
					c1.949-13.331-3.488-24.079-8.192-33.665C205.82,235.758,202.494,238.771,198.502,243.332z"/>
				<path style="opacity:0.2;" d="M213.288,230.043c-4.901,3.54-9.189,6.894-14.786,13.289c0.23-0.227,8.563-8.259,16.163-8.335
					c4.893-0.049,8.333,1.333,8.333,1.333s-5.222-3.555-9.188-6.4C213.63,229.962,213.463,230.007,213.288,230.043z"/>
				<path style="opacity:0.2;" d="M202.743,215.07c3.542-2.932,7.549-7.293,9.713-15.503l-27.356,7.381
					c0.068,1.54,0.382,3.055,0.998,4.521l21.012,13.992C207.111,225.461,205.048,218.796,202.743,215.07z"/>
			</g>
		</g>
		<g id="Bike_00000000196519316619440380000011691382172672839334_">
			<g>
				<g>
					<g>
						<path style="fill:#455A64;" d="M134.1,343.595c-6.858,0-14.271-2.141-22.034-6.363l-3.318-1.814
							c-28.574-15.54-52.486-54.652-53.305-87.187c-0.981-13.51,1.387-23.632,7.239-30.967c5.738-7.774,12.19-11.352,23.026-12.778
							c1.062-0.157,2.187-0.25,3.447-0.288c0,0,0.326-0.017,0.349-0.019l0.587-0.003c6.855,0,14.265,2.141,22.021,6.362l3.319,1.814
							c28.574,15.541,52.486,54.652,53.304,87.187l0.095,3.782c0.248,9.816-1.752,19.314-4.977,23.635
							c-0.206,0.276-0.374,0.574-0.541,0.871c-0.098,0.176-0.196,0.351-0.304,0.52l-0.086,0.135
							c-0.243,0.376-0.489,0.748-0.746,1.106c-5.778,8.335-12.385,12.169-23.569,13.679l-0.291,0.048
							c-0.187,0.029-0.364,0.057-0.552,0.072c-0.401,0.06-0.769,0.092-1.136,0.124c-0.14,0.015-0.258,0.017-0.398,0.02
							c-0.282,0.022-0.555,0.039-0.826,0.052L134.1,343.595z M86.181,213.086c-7.228,0-13.523,2.539-18.207,7.342
							c-6.19,6.348-9.299,16.184-8.991,28.444c0.78,30.995,23.575,68.276,50.813,83.105c7.488,4.077,14.648,6.144,21.28,6.144
							c7.228,0,13.523-2.539,18.207-7.341c6.19-6.348,9.299-16.183,8.991-28.443c-0.78-30.995-23.575-68.276-50.813-83.106
							C99.972,215.153,92.813,213.086,86.181,213.086z"/>
						<path style="fill:#37474F;" d="M90.09,204.676c6.772,0,14.101,2.12,21.781,6.3l3.321,1.815
							c28.433,15.464,52.228,54.384,53.043,86.76l0.095,3.782c0.245,9.713-1.715,19.086-4.877,23.324
							c-0.232,0.311-0.408,0.624-0.577,0.927c-0.094,0.167-0.186,0.333-0.287,0.492l-0.034,0.053l-0.052,0.082
							c-0.239,0.369-0.48,0.734-0.74,1.098c-5.684,8.199-12.195,11.973-23.238,13.465l-0.147,0.025
							c-0.041,0.007-0.081,0.015-0.16,0.025c-0.154,0.025-0.319,0.05-0.494,0.065l-0.033,0.003l-0.033,0.005
							c-0.355,0.053-0.72,0.085-1.094,0.118c-0.115,0.012-0.22,0.014-0.344,0.017l-0.027,0.001l-0.027,0.002
							c-0.26,0.021-0.517,0.037-0.779,0.049l-0.945,0.01l-0.34,0.002c-6.774,0-14.107-2.121-21.794-6.302l-3.321-1.815
							c-28.433-15.464-52.228-54.384-53.045-86.807c-0.97-13.355,1.363-23.364,7.155-30.626c5.709-7.735,11.856-11.14,22.694-12.566
							c1.036-0.153,2.143-0.246,3.392-0.283c0.092-0.004,0.183-0.009,0.274-0.015c0.007,0,0.014-0.001,0.021-0.001l0.264-0.003
							L90.09,204.676 M131.076,338.621c7.366,0,13.785-2.591,18.565-7.492c6.286-6.447,9.444-16.407,9.132-28.805
							c-0.784-31.154-23.696-68.627-51.074-83.532c-7.563-4.117-14.801-6.205-21.518-6.205c-7.366,0.001-13.786,2.592-18.566,7.494
							c-6.286,6.446-9.443,16.407-9.131,28.804c0.784,31.154,23.696,68.626,51.074,83.532
							C117.12,336.533,124.359,338.621,131.076,338.621 M89.738,203.668c-0.201,0.005-0.398,0.022-0.598,0.03
							c-1.193,0.035-2.363,0.125-3.498,0.292c-10.644,1.4-17.303,4.766-23.352,12.961c-6.948,8.71-8.147,20.285-7.347,31.292
							c0.824,32.741,24.799,71.968,53.565,87.613l3.319,1.814c8.033,4.369,15.574,6.424,22.274,6.424
							c0.117,0,0.234-0.001,0.351-0.002l-0.01,0.013c0.068-0.002,0.136-0.008,0.204-0.01c0.008,0,0.016,0,0.025,0
							c0.07,0,0.142,0.005,0.213,0.005c0.012,0,0.023,0,0.035,0c0.45-0.011,0.889-0.034,1.327-0.069
							c0.154-0.004,0.284-0.007,0.426-0.023c0.378-0.033,0.757-0.067,1.135-0.124c0.201-0.017,0.39-0.045,0.568-0.073
							c0.101-0.012,0.2-0.034,0.301-0.049c10.994-1.484,17.903-5.22,23.91-13.884c0.261-0.365,0.511-0.743,0.758-1.125
							c0.029-0.046,0.059-0.092,0.088-0.138c0.283-0.443,0.504-0.931,0.825-1.361c3.263-4.373,5.328-13.905,5.075-23.947
							l-0.095-3.782c-0.824-32.741-24.798-71.968-53.565-87.613l-3.32-1.814c-8.024-4.367-15.567-6.423-22.261-6.423
							c-0.121,0-0.242,0.001-0.362,0.002L89.738,203.668L89.738,203.668z M131.076,337.621c-6.326,0-13.457-1.954-21.04-6.083
							c-27.14-14.776-49.775-51.794-50.552-82.679c-0.56-22.265,10.384-35.271,26.698-35.273c6.326-0.001,13.456,1.954,21.04,6.083
							c27.141,14.776,49.775,51.794,50.553,82.679C158.333,324.613,147.389,337.621,131.076,337.621L131.076,337.621z"/>
					</g>
					<path style="fill:#37474F;" d="M108.749,215.35l-3.32-1.814c-14.227-7.743-26.956-8.265-36.095-2.852
						c-12.73,7.597-15.235,23.91-14.392,37.56c0.824,32.741,24.799,71.968,53.565,87.613l3.319,1.814
						c8.358,4.546,16.191,6.603,23.09,6.429c0.45-0.011,0.889-0.034,1.327-0.069c0.154-0.004,0.284-0.007,0.426-0.023
						c0.379-0.033,0.757-0.066,1.135-0.124c0.201-0.017,0.39-0.045,0.568-0.073c0.379-0.045,0.756-0.114,1.122-0.183
						c0.343-0.056,0.673-0.123,0.991-0.203c0.33-0.068,0.649-0.135,0.955-0.226c0.613-0.158,1.213-0.339,1.789-0.543
						c0.247-0.078,0.494-0.167,0.741-0.256c0.282-0.102,0.553-0.204,0.811-0.317c0.235-0.101,0.458-0.19,0.68-0.302
						c0.493-0.214,0.974-0.439,1.442-0.7c0.234-0.113,0.468-0.249,0.702-0.385c0.058-0.037,0.117-0.074,0.187-0.112
						c0.094-0.038,0.175-0.099,0.269-0.161c0.152-0.075,0.292-0.173,0.444-0.26c8.979-5.671,14.311-17.227,13.903-33.42
						l-0.095-3.781C161.49,270.223,137.503,230.995,108.749,215.35z M110.035,331.538c-27.14-14.776-49.775-51.794-50.552-82.679
						c-0.778-30.899,20.597-43.965,47.738-29.19c27.14,14.776,49.775,51.794,50.552,82.679
						C158.551,333.247,137.176,346.314,110.035,331.538z"/>
					<g>
						<path style="fill:#263238;" d="M145.863,322.708c-7.429,9.309-20.673,10.941-35.983,2.616
							c-24.129-13.128-44.247-46.033-44.939-73.5c-0.309-12.27,3.32-21.376,9.581-26.532c-4.319,5.372-6.705,13.294-6.452,23.351
							c0.691,27.454,20.809,60.358,44.938,73.5C126.343,329.404,138.121,329.094,145.863,322.708z"/>
					</g>
					<path style="fill:#455A64;" d="M107.218,219.67c-27.142-14.773-48.514-1.707-47.736,29.185
						c0.777,30.891,23.41,67.909,50.551,82.682c27.141,14.772,48.513,1.706,47.736-29.185
						C156.992,271.461,134.36,234.443,107.218,219.67z M109.877,325.321c-24.125-13.131-44.242-46.035-44.933-73.493
						c-0.691-27.458,18.306-39.073,42.432-25.942c24.125,13.131,44.242,46.035,44.933,73.493
						C153,326.837,134.002,338.452,109.877,325.321z"/>
					<path style="fill:#EBEBEB;" d="M150.512,285.754c-0.111-0.482-0.23-0.966-0.351-1.449l-37.759-9.107l33.435-3.835
						c-0.177-0.425-0.348-0.85-0.532-1.273l-33.79,3.876l27.17-16.611c-0.23-0.377-0.469-0.748-0.704-1.122l-27.158,16.604
						l18.756-28.164c-0.296-0.353-0.592-0.704-0.892-1.052l-18.557,27.865l9.017-37.39c-0.377-0.322-0.754-0.644-1.134-0.957
						l-8.869,36.776l-1.098-43.644c-0.225-0.126-0.447-0.262-0.673-0.385c-0.226-0.123-0.447-0.228-0.672-0.347l1.079,42.9
						l-10.81-46.795c-0.485-0.13-0.965-0.243-1.443-0.35l10.665,46.165l-19.567-46.897c-0.464,0.036-0.918,0.093-1.371,0.154
						l19.425,46.558l-26.972-44.115c-0.388,0.212-0.771,0.432-1.144,0.669l26.984,44.134l-32.751-38.705
						c-0.269,0.365-0.525,0.747-0.777,1.134l33.004,39.005l-36.604-30.849c-0.13,0.467-0.256,0.938-0.369,1.422l37.127,31.289
						L64.94,250.444c0,0.46-0.008,0.914,0.004,1.383c0.001,0.043,0.005,0.087,0.006,0.13l38.921,21.183l-37.421-9.024
						c0.102,0.48,0.205,0.96,0.316,1.441l38.052,9.177l-33.911,3.891c0.171,0.426,0.352,0.849,0.53,1.274l34.267-3.932
						l-27.701,16.936c0.226,0.379,0.447,0.761,0.678,1.138l27.715-16.944l-19.217,28.856c0.293,0.355,0.594,0.702,0.892,1.052
						l19.018-28.557l-9.267,38.422c0.377,0.325,0.75,0.655,1.13,0.971l9.122-37.822l1.13,44.919
						c0.225,0.126,0.447,0.262,0.672,0.385c0.225,0.123,0.448,0.228,0.672,0.347l-1.112-44.173l11.121,48.147
						c0.484,0.125,0.961,0.229,1.438,0.332l-10.971-47.5l20.075,48.117c0.46-0.045,0.919-0.093,1.367-0.163l-19.93-47.769
						l27.56,45.078c0.381-0.224,0.751-0.465,1.116-0.713l-27.544-45.053l33.256,39.304c0.259-0.378,0.516-0.758,0.758-1.157
						l-33.489-39.58l36.901,31.1c0.118-0.477,0.225-0.965,0.326-1.459l-37.38-31.504l38.268,20.829
						c-0.001-0.043,0.001-0.084,0-0.126c-0.012-0.47-0.043-0.945-0.066-1.418l-38.893-21.169L150.512,285.754z"/>
					<g>
						<path style="fill:#E0E0E0;" d="M110.347,262.333c-3.009-1.64-5.677-1.676-7.55-0.436c-0.387,0.259-0.859,0.486-1.357,0.8
							c-0.139,0.081-0.268,0.177-0.399,0.271c-0.023,0.017-0.045,0.03-0.069,0.047c-0.009,0.007-0.016,0.015-0.025,0.022
							c-0.175,0.133-0.342,0.278-0.501,0.436c-0.036,0.035-0.071,0.071-0.106,0.108c-0.14,0.147-0.274,0.302-0.4,0.469
							c-0.047,0.061-0.091,0.126-0.136,0.19c-0.108,0.156-0.213,0.315-0.309,0.485c-0.052,0.092-0.1,0.19-0.149,0.287
							c-0.079,0.159-0.158,0.318-0.227,0.488c-0.052,0.127-0.096,0.263-0.143,0.396c-0.054,0.158-0.11,0.313-0.157,0.48
							c-0.046,0.166-0.081,0.343-0.119,0.517c-0.032,0.152-0.069,0.299-0.095,0.457c-0.036,0.219-0.057,0.451-0.08,0.682
							c-0.013,0.13-0.033,0.253-0.042,0.387c-0.024,0.373-0.033,0.76-0.023,1.161c0.168,6.66,5.051,14.642,10.904,17.831
							c0.366,0.199,0.727,0.374,1.082,0.527c0.213,0.092,0.42,0.158,0.628,0.234c0.142,0.051,0.288,0.114,0.428,0.158
							c0.144,0.045,0.283,0.071,0.424,0.107c0.201,0.052,0.403,0.112,0.598,0.148c0.079,0.015,0.153,0.018,0.231,0.03
							c0.254,0.04,0.508,0.077,0.752,0.091c0.017,0.001,0.034-0.001,0.051,0c1.296,0.064,2.442-0.246,3.384-0.883
							c0.5-0.31,0.944-0.541,1.508-0.897c1.806-1.152,2.879-3.495,2.797-6.76C121.083,273.503,116.199,265.522,110.347,262.333z
							 M107.869,282.481c-1.826-1.352-4.442-5.514-5.49-7.849c0.553,0.35,1.185,0.745,1.854,1.07
							c2.752,1.337,2.636-0.564,3.775,0.728c1.091,1.228,1.01,4.539,0.186,6.233C108.088,282.621,107.981,282.564,107.869,282.481z
							 M112.855,269.971c-0.166,0.064-0.313,0.135-0.441,0.213c-0.287,0.172-1.449,0.873-1.579,0.951
							c-0.394,0.236-0.627,0.527-0.78,0.818c-1.378-1.336-3.05-5.675-2.979-7.737c2.362,0.741,6.332,3.893,6.964,5.133
							c0.057,0.112,0.092,0.208,0.119,0.298C113.745,269.714,113.293,269.802,112.855,269.971z M104.892,268.791
							c0.956,3.135,2.29,3.586,2.401,4.613c-2.063-0.28-5.452-2.194-5.726-4.169c-0.26-1.842,0.688-4.072,1.672-5.344
							C104.118,264.25,104.11,266.224,104.892,268.791z M111.214,285.202c-1.113-0.967,0.071-1.966,0.576-4.037
							c0.314-1.283,0.098-2.263-0.104-2.992c2.18,1.631,5.502,5.984,4.707,7.319c-0.028,0.048-0.069,0.088-0.102,0.133
							C114.509,286.141,111.992,285.889,111.214,285.202z M116.141,278.208c-2.348-2.977-3.221-1.909-3.811-3.515
							c-0.286-0.779,0.051-1.575,0.682-2.196c1.207-0.394,2.575-0.221,3.319,1.023c1.157,1.941,1.863,5.516,1.973,7.744
							C117.741,280.467,117.034,279.332,116.141,278.208z"/>
						<path style="opacity:0.2;" d="M110.347,262.333c-3.009-1.64-5.677-1.676-7.55-0.436c-0.387,0.259-0.859,0.486-1.357,0.8
							c-0.139,0.081-0.268,0.177-0.399,0.271c-0.023,0.017-0.045,0.03-0.069,0.047c-0.009,0.007-0.016,0.015-0.025,0.022
							c-0.175,0.133-0.342,0.278-0.501,0.436c-0.036,0.035-0.071,0.071-0.106,0.108c-0.14,0.147-0.274,0.302-0.4,0.469
							c-0.047,0.061-0.091,0.126-0.136,0.19c-0.108,0.156-0.213,0.315-0.309,0.485c-0.052,0.092-0.1,0.19-0.149,0.287
							c-0.079,0.159-0.158,0.318-0.227,0.488c-0.052,0.127-0.096,0.263-0.143,0.396c-0.054,0.158-0.11,0.313-0.157,0.48
							c-0.046,0.166-0.081,0.343-0.119,0.517c-0.032,0.152-0.069,0.299-0.095,0.457c-0.036,0.219-0.057,0.451-0.08,0.682
							c-0.013,0.13-0.033,0.253-0.042,0.387c-0.024,0.373-0.033,0.76-0.023,1.161c0.168,6.66,5.051,14.642,10.904,17.831
							c0.366,0.199,0.727,0.374,1.082,0.527c0.213,0.092,0.42,0.158,0.628,0.234c0.142,0.051,0.288,0.114,0.428,0.158
							c0.144,0.045,0.283,0.071,0.424,0.107c0.201,0.052,0.403,0.112,0.598,0.148c0.079,0.015,0.153,0.018,0.231,0.03
							c0.254,0.04,0.508,0.077,0.752,0.091c0.017,0.001,0.034-0.001,0.051,0c1.296,0.064,2.442-0.246,3.384-0.883
							c0.5-0.31,0.944-0.541,1.508-0.897c1.806-1.152,2.879-3.495,2.797-6.76C121.083,273.503,116.199,265.522,110.347,262.333z
							 M107.869,282.481c-1.826-1.352-4.442-5.514-5.49-7.849c0.553,0.35,1.185,0.745,1.854,1.07
							c2.752,1.337,2.636-0.564,3.775,0.728c1.091,1.228,1.01,4.539,0.186,6.233C108.088,282.621,107.981,282.564,107.869,282.481z
							 M112.855,269.971c-0.166,0.064-0.313,0.135-0.441,0.213c-0.287,0.172-1.449,0.873-1.579,0.951
							c-0.394,0.236-0.627,0.527-0.78,0.818c-1.378-1.336-3.05-5.675-2.979-7.737c2.362,0.741,6.332,3.893,6.964,5.133
							c0.057,0.112,0.092,0.208,0.119,0.298C113.745,269.714,113.293,269.802,112.855,269.971z M104.892,268.791
							c0.956,3.135,2.29,3.586,2.401,4.613c-2.063-0.28-5.452-2.194-5.726-4.169c-0.26-1.842,0.688-4.072,1.672-5.344
							C104.118,264.25,104.11,266.224,104.892,268.791z M111.214,285.202c-1.113-0.967,0.071-1.966,0.576-4.037
							c0.314-1.283,0.098-2.263-0.104-2.992c2.18,1.631,5.502,5.984,4.707,7.319c-0.028,0.048-0.069,0.088-0.102,0.133
							C114.509,286.141,111.992,285.889,111.214,285.202z M116.141,278.208c-2.348-2.977-3.221-1.909-3.811-3.515
							c-0.286-0.779,0.051-1.575,0.682-2.196c1.207-0.394,2.575-0.221,3.319,1.023c1.157,1.941,1.863,5.516,1.973,7.744
							C117.741,280.467,117.034,279.332,116.141,278.208z"/>
						<path style="fill:#E0E0E0;" d="M108.758,263.282c-5.852-3.18-10.464-0.363-10.296,6.297
							c0.168,6.66,5.051,14.642,10.904,17.831c5.852,3.181,10.456,0.363,10.288-6.297
							C119.486,274.453,114.61,266.471,108.758,263.282z M106.188,264.058c2.067-0.026,7.13,3.877,7.852,5.291
							c0.722,1.423-1.109,0.937-2.757,1.57c-2.098,0.799-1.044,2.822-2.3,2.339C107.147,272.551,104.13,264.076,106.188,264.058z
							 M103.068,263.819c1.067,0.153,0.991,2.239,1.823,4.972c1.056,3.464,2.579,3.649,2.397,4.957
							c-0.269,1.919-6.915-0.769-7.303-3.573C99.599,267.38,102.001,263.657,103.068,263.819z M106.289,283.422
							c-2.298-1.701-5.885-7.906-5.944-9.225c-0.059-1.319,1.727,0.454,3.889,1.506c2.752,1.337,2.636-0.564,3.775,0.728
							C109.685,278.319,108.596,285.13,106.289,283.422z M116.393,285.491c-1.037,1.741-5.645,1.626-6.759,0.659
							c-1.105-0.976,0.079-1.966,0.584-4.046c0.637-2.632-0.95-3.999-0.062-4.51C111.45,276.851,117.43,283.75,116.393,285.491z
							 M114.569,279.148c-2.347-2.968-3.221-1.909-3.811-3.515c-0.874-2.345,3.908-4.893,5.573-2.113
							c1.657,2.78,2.394,8.92,1.769,9.638C117.476,283.878,116.421,281.486,114.569,279.148z"/>
					</g>
					<path style="fill:#455A64;" d="M108.77,281.307c2.768,1.506,4.947,0.174,4.868-2.976c-0.079-3.15-2.387-6.924-5.154-8.431
						c-2.768-1.506-4.947-0.174-4.868,2.976C103.695,276.026,106.002,279.801,108.77,281.307z"/>
				</g>
			</g>
			<g>
				<g>
					<path style="fill:#BA68C8;" d="M181.491,341.175c-0.738-0.028-1.375-0.577-1.49-1.334l-19.425-129.064
						c-0.13-0.858,0.458-1.659,1.317-1.79c0.857-0.129,3.483,0.025,3.614,0.883l19.425,129.065c0.13,0.858-2.284,2.093-3.141,2.224
						C181.689,341.174,181.589,341.179,181.491,341.175z"/>
				</g>
				<g>
					<path style="fill:#BA68C8;" d="M167.212,229.563l92.855,50.55l2.807-4.449l-94.677-51.521
						C165.264,222.493,163.505,227.545,167.212,229.563z"/>
				</g>
				<g>
					<path style="fill:#BA68C8;" d="M111.42,275.316l52.731-45.809c0.96-0.282-0.314-6.303-1.268-6.016l-56.286,49.483
						c-1.345,1.181-1.347,3.275-0.004,4.459l73.112,63.396c0.21,0.167,0.421,0.301,0.628,0.415c0.574,0.31,1.111,0.428,1.606,0.415
						c0.851-0.021,1.57-0.429,2.129-0.885l73.892-58.509l5.754-4.541c0.786-0.619,0.919-1.758,0.3-2.542
						c-0.618-0.787-2.463-1.25-3.247-0.632c0,0-79.013,61.129-79.241,60.967L111.42,275.316z"/>
				</g>
			</g>
			<g>
				<g>
					<g>
						<path style="fill:#BA68C8;" d="M259.894,280.298c-0.711-0.028-1.325-0.556-1.435-1.285l-6.145-40.455
							c-0.126-0.827,0.442-1.598,1.269-1.724c0.825-0.125,3.355,0.024,3.481,0.851l6.145,40.454c0.125,0.826-2.2,2.017-3.026,2.142
							C260.085,280.296,259.988,280.302,259.894,280.298z"/>
						<path style="opacity:0.2;" d="M258.123,244.661l-1.06-6.976c-0.125-0.827-2.655-0.976-3.481-0.851
							c-0.827,0.126-1.394,0.897-1.269,1.724l0.665,4.38C254.137,243.627,256.336,244.415,258.123,244.661z"/>
					</g>
					<g>
						<path style="fill:#BA68C8;" d="M284.931,369.199L284.931,369.199c-9.689-9.244-16.035-21.443-18.044-34.683l-6.834-45.037
							c-0.136-0.818-0.542-3.484-2.813-2.095c-2.203,1.347-2.064,2.136-1.945,2.97l7.066,46.526
							c2.011,13.24,8.359,25.438,18.049,34.681l1.294,1.234c0.606,0.576,1.792,0.743,3.013-0.355
							C285.938,371.359,285.537,369.776,284.931,369.199z"/>
					</g>
					<path style="fill:#37474F;" d="M257.069,269.886c0,0,0.451,2.973,0.814,5.362c0.313,2.058-3.915,6.411-3.268,10.671
						c0.669,4.409,1.227,8.102,1.227,8.102c0.277,1.812,4.732-1.002,4.474-2.736l-0.468-3.09c-0.368-2.423-0.572-3.769,0.831-4.59
						l1.284-0.795c1.617-0.892,2.061,0.736,2.379,2.831l0.523,3.452c0.247,1.631,4.825-0.372,4.47-2.708
						c0,0-0.766-5.052-1.287-8.485c-0.42-2.765-5.339-3.017-5.857-6.429l-0.579-3.855
						C261.786,269.373,258.054,271.333,257.069,269.886z"/>
				</g>
			</g>
			<g>
				<g>
					<g>
						<path style="fill:#E0E0E0;" d="M183.824,319.579c-4.04-2.202-7.623-2.25-10.138-0.586c-0.519,0.347-1.154,0.653-1.822,1.074
							c-0.186,0.109-0.36,0.238-0.535,0.364c-0.031,0.023-0.061,0.04-0.093,0.063c-0.012,0.009-0.021,0.02-0.033,0.029
							c-0.236,0.179-0.459,0.374-0.673,0.585c-0.048,0.047-0.096,0.096-0.142,0.145c-0.189,0.197-0.368,0.406-0.538,0.629
							c-0.063,0.082-0.122,0.169-0.182,0.255c-0.146,0.209-0.286,0.423-0.415,0.652c-0.07,0.124-0.134,0.255-0.199,0.385
							c-0.107,0.213-0.212,0.427-0.306,0.655c-0.07,0.171-0.129,0.353-0.191,0.532c-0.073,0.212-0.148,0.42-0.21,0.644
							c-0.062,0.223-0.109,0.46-0.159,0.695c-0.044,0.204-0.093,0.401-0.128,0.613c-0.048,0.294-0.077,0.606-0.108,0.917
							c-0.017,0.174-0.044,0.34-0.055,0.52c-0.032,0.501-0.044,1.02-0.031,1.56c0.225,8.943,6.783,19.661,14.641,23.943
							c0.492,0.267,0.976,0.503,1.453,0.707c0.286,0.123,0.563,0.213,0.844,0.314c0.191,0.069,0.386,0.153,0.575,0.212
							c0.194,0.06,0.38,0.095,0.57,0.144c0.269,0.07,0.541,0.15,0.803,0.199c0.106,0.02,0.206,0.024,0.31,0.04
							c0.342,0.054,0.682,0.103,1.01,0.122c0.023,0.001,0.045-0.002,0.068,0c1.74,0.086,3.279-0.331,4.544-1.185
							c0.671-0.416,1.267-0.726,2.025-1.205c2.426-1.547,3.867-4.692,3.756-9.078C198.24,334.579,191.682,323.861,183.824,319.579z
							 M180.497,346.635c-2.452-1.816-5.965-7.405-7.372-10.539c0.743,0.471,1.592,1,2.49,1.437c3.696,1.796,3.54-0.757,5.069,0.978
							c1.465,1.649,1.357,6.096,0.25,8.37C180.791,346.822,180.647,346.746,180.497,346.635z M187.191,329.836
							c-0.223,0.086-0.419,0.182-0.592,0.286c-0.385,0.231-1.945,1.172-2.121,1.278c-0.529,0.317-0.842,0.707-1.047,1.099
							c-1.851-1.794-4.095-7.62-3.999-10.389c3.171,0.995,8.502,5.228,9.352,6.893c0.076,0.15,0.124,0.279,0.16,0.399
							C188.387,329.491,187.781,329.61,187.191,329.836z M176.499,328.251c1.284,4.21,3.075,4.815,3.224,6.195
							c-2.77-0.376-7.321-2.946-7.689-5.599c-0.35-2.474,0.924-5.468,2.245-7.177C175.46,322.153,175.449,324.805,176.499,328.251z
							 M184.988,350.288c-1.495-1.299,0.095-2.64,0.773-5.421c0.421-1.723,0.132-3.039-0.14-4.018
							c2.927,2.191,7.388,8.036,6.321,9.828c-0.038,0.064-0.093,0.118-0.137,0.178C189.413,351.55,186.033,351.21,184.988,350.288z
							 M191.604,340.896c-3.152-3.998-4.326-2.563-5.117-4.72c-0.384-1.046,0.068-2.114,0.916-2.949
							c1.621-0.528,3.457-0.296,4.457,1.374c1.553,2.607,2.502,7.407,2.649,10.398C193.753,343.93,192.804,342.406,191.604,340.896z
							"/>
						<path style="opacity:0.2;" d="M183.824,319.579c-4.04-2.202-7.623-2.25-10.138-0.586c-0.519,0.347-1.154,0.653-1.822,1.074
							c-0.186,0.109-0.36,0.238-0.535,0.364c-0.031,0.023-0.061,0.04-0.093,0.063c-0.012,0.009-0.021,0.02-0.033,0.029
							c-0.236,0.179-0.459,0.374-0.673,0.585c-0.048,0.047-0.096,0.096-0.142,0.145c-0.189,0.197-0.368,0.406-0.538,0.629
							c-0.063,0.082-0.122,0.169-0.182,0.255c-0.146,0.209-0.286,0.423-0.415,0.652c-0.07,0.124-0.134,0.255-0.199,0.385
							c-0.107,0.213-0.212,0.427-0.306,0.655c-0.07,0.171-0.129,0.353-0.191,0.532c-0.073,0.212-0.148,0.42-0.21,0.644
							c-0.062,0.223-0.109,0.46-0.159,0.695c-0.044,0.204-0.093,0.401-0.128,0.613c-0.048,0.294-0.077,0.606-0.108,0.917
							c-0.017,0.174-0.044,0.34-0.055,0.52c-0.032,0.501-0.044,1.02-0.031,1.56c0.225,8.943,6.783,19.661,14.641,23.943
							c0.492,0.267,0.976,0.503,1.453,0.707c0.286,0.123,0.563,0.213,0.844,0.314c0.191,0.069,0.386,0.153,0.575,0.212
							c0.194,0.06,0.38,0.095,0.57,0.144c0.269,0.07,0.541,0.15,0.803,0.199c0.106,0.02,0.206,0.024,0.31,0.04
							c0.342,0.054,0.682,0.103,1.01,0.122c0.023,0.001,0.045-0.002,0.068,0c1.74,0.086,3.279-0.331,4.544-1.185
							c0.671-0.416,1.267-0.726,2.025-1.205c2.426-1.547,3.867-4.692,3.756-9.078C198.24,334.579,191.682,323.861,183.824,319.579z
							 M180.497,346.635c-2.452-1.816-5.965-7.405-7.372-10.539c0.743,0.471,1.592,1,2.49,1.437c3.696,1.796,3.54-0.757,5.069,0.978
							c1.465,1.649,1.357,6.096,0.25,8.37C180.791,346.822,180.647,346.746,180.497,346.635z M187.191,329.836
							c-0.223,0.086-0.419,0.182-0.592,0.286c-0.385,0.231-1.945,1.172-2.121,1.278c-0.529,0.317-0.842,0.707-1.047,1.099
							c-1.851-1.794-4.095-7.62-3.999-10.389c3.171,0.995,8.502,5.228,9.352,6.893c0.076,0.15,0.124,0.279,0.16,0.399
							C188.387,329.491,187.781,329.61,187.191,329.836z M176.499,328.251c1.284,4.21,3.075,4.815,3.224,6.195
							c-2.77-0.376-7.321-2.946-7.689-5.599c-0.35-2.474,0.924-5.468,2.245-7.177C175.46,322.153,175.449,324.805,176.499,328.251z
							 M184.988,350.288c-1.495-1.299,0.095-2.64,0.773-5.421c0.421-1.723,0.132-3.039-0.14-4.018
							c2.927,2.191,7.388,8.036,6.321,9.828c-0.038,0.064-0.093,0.118-0.137,0.178C189.413,351.55,186.033,351.21,184.988,350.288z
							 M191.604,340.896c-3.152-3.998-4.326-2.563-5.117-4.72c-0.384-1.046,0.068-2.114,0.916-2.949
							c1.621-0.528,3.457-0.296,4.457,1.374c1.553,2.607,2.502,7.407,2.649,10.398C193.753,343.93,192.804,342.406,191.604,340.896z
							"/>
						<path style="fill:#E0E0E0;" d="M181.691,320.853c-7.858-4.271-14.051-0.487-13.826,8.456
							c0.225,8.943,6.783,19.661,14.641,23.943c7.858,4.271,14.04,0.488,13.815-8.455
							C196.096,335.854,189.549,325.135,181.691,320.853z M178.239,321.896c2.775-0.035,9.575,5.207,10.544,7.105
							c0.969,1.91-1.488,1.258-3.702,2.108c-2.818,1.073-1.402,3.79-3.088,3.141C179.528,333.3,175.475,321.919,178.239,321.896z
							 M174.05,321.575c1.433,0.206,1.331,3.007,2.448,6.676c1.419,4.652,3.463,4.9,3.219,6.656
							c-0.361,2.577-9.285-1.033-9.806-4.797C169.391,326.357,172.617,321.358,174.05,321.575z M178.375,347.897
							c-3.086-2.283-7.903-10.616-7.982-12.387c-0.079-1.772,2.319,0.61,5.222,2.022c3.696,1.796,3.54-0.757,5.069,0.978
							C182.936,341.045,181.473,350.192,178.375,347.897z M191.943,350.677c-1.392,2.338-7.581,2.183-9.076,0.885
							c-1.484-1.31,0.106-2.64,0.785-5.433c0.855-3.534-1.276-5.369-0.083-6.055C185.305,339.074,193.335,348.339,191.943,350.677z
							 M189.494,342.159c-3.152-3.986-4.326-2.563-5.117-4.72c-1.173-3.149,5.248-6.57,7.484-2.837
							c2.224,3.733,3.215,11.977,2.376,12.943C193.397,348.51,191.98,345.298,189.494,342.159z"/>
					</g>
					<path style="fill:#455A64;" d="M182.221,342.007c2.404,1.309,4.297,0.151,4.228-2.585c-0.069-2.736-2.073-6.015-4.477-7.323
						c-2.404-1.309-4.297-0.151-4.228,2.585C177.813,337.42,179.817,340.699,182.221,342.007z"/>
				</g>
				<g>
					<g>
						<path style="fill:#BA68C8;" d="M168.495,360.048c-0.171,0.004-0.346-0.03-0.511-0.106c-0.577-0.267-0.829-0.951-0.561-1.528
							l9.001-19.447l4.906-2.998c0.54-0.333,1.251-0.161,1.583,0.382c0.332,0.543,0.161,1.251-0.382,1.583l-4.31,2.634
							l-8.708,18.813C169.321,359.792,168.919,360.038,168.495,360.048z"/>
					</g>
					<g style="opacity:0.3;">
						<path d="M168.495,360.048c-0.171,0.004-0.346-0.03-0.511-0.106c-0.577-0.267-0.829-0.951-0.561-1.528l9.001-19.447
							l4.906-2.998c0.54-0.333,1.251-0.161,1.583,0.382c0.332,0.543,0.161,1.251-0.382,1.583l-4.31,2.634l-8.708,18.813
							C169.321,359.792,168.919,360.038,168.495,360.048z"/>
					</g>
					<g>
						<path style="fill:#BA68C8;" d="M177.464,364.055l-17.596-9.577c-0.511-0.278-1.132-0.263-1.629,0.041l-12.481,7.631
							c-0.497,0.304-0.793,0.849-0.779,1.431l0.02,0.814c0.015,0.582,0.339,1.112,0.85,1.39l17.614,9.587
							c0.512,0.279,1.133,0.263,1.63-0.042l12.463-7.64c0.496-0.304,0.792-0.849,0.777-1.43l-0.02-0.815
							C178.299,364.863,177.975,364.333,177.464,364.055z"/>
						<path style="opacity:0.2;" d="M177.464,364.055l-17.596-9.577c-0.511-0.278-1.132-0.263-1.629,0.041l-12.481,7.631
							c-0.497,0.304-0.793,0.849-0.779,1.431l0.02,0.814c0.015,0.582,0.339,1.112,0.85,1.39l17.614,9.587
							c0.512,0.279,1.133,0.263,1.63-0.042l12.463-7.64c0.496-0.304,0.792-0.849,0.777-1.43l-0.02-0.815
							C178.299,364.863,177.975,364.333,177.464,364.055z"/>
						<path style="fill:#BA68C8;" d="M163.455,372.709c0.475,0.259,1.053,0.244,1.514-0.039l13.106-8.034
							c-0.146-0.24-0.355-0.442-0.611-0.582l-6.765-3.682l-10.83-5.895c-0.511-0.278-1.132-0.262-1.629,0.041l-1.512,0.924
							l-10.969,6.706c-0.249,0.152-0.447,0.364-0.581,0.611L163.455,372.709z"/>
					</g>
				</g>
			</g>
			<g>
				<path style="fill:#263238;" d="M193.875,223.153c-3.333-5.133-11.049-12.538-11.049-12.538s-20.066-25.63-41.277-12.661
					c-4.266,2.608-6.385,5.893-7.204,10.787c-0.307,1.836-0.132,3.998-0.04,4.676c0.406,2.983,1.061,4.167,2.827,6.479
					c2.934,3.843,11.029,6.859,20.691,9.046c0.692,0.157,1.387,0.304,2.083,0.446c3.447,0.702,6.919,1.279,10.382,1.89
					c3.433,0.606,6.87,1.219,10.261,2.034c1.389,0.334,2.774,0.701,4.126,1.164c0.556,0.19,1.107,0.397,1.645,0.635
					c0.73,0.323,1.022,0.445,1.87,0.648c0.485,0.116,1.219,0.116,1.707,0.014c0.448-0.094,0.897-0.197,1.316-0.38
					c0.376-0.164,0.722-0.391,1.043-0.647c1.212-0.964,2.072-2.333,2.538-3.809C195.616,228.334,195.373,225.46,193.875,223.153z"/>
				<path style="fill:#455A64;" d="M141.549,197.954c-6.428,3.93-9.825,10.954-4.518,17.904c2.934,3.843,11.029,6.859,20.691,9.046
					c9.662,2.186,26.132,3.96,30.272,7.174c4.14,3.214,9.796-2.894,5.881-8.925c-3.333-5.133-11.048-12.538-11.048-12.538
					S162.761,184.986,141.549,197.954z"/>
			</g>
		</g>
		<g id="Leg_00000129185426118081275790000003524794050815555251_">
			<path id="XMLID_00000016786785722871662430000017684760464682438069_" style="fill:#FFA8A7;" d="M185.876,316.627
				c-1.631,2.762-3.252,5.533-4.775,8.357c-1.309,2.427-2.514,4.904-3.612,7.433c-0.644,1.483-1.411,3.014-1.864,4.605
				c-0.236,0.826-0.408,1.693-0.401,2.556c0.007,0.78,0.382,1.555,0.616,2.3c2.45,7.813,7.818,14.235,11.301,21.561
				c0.136,0.285,0.271,0.587,0.252,0.902c-0.039,0.644-0.68,1.06-1.254,1.353c-2.138,1.09-4.383,1.969-6.692,2.621
				c-2.933,0.828-6.215,1.255-8.921-0.148c-2.008-1.042-3.406-2.94-4.737-4.77c-1.683-2.313-3.397-4.639-5.558-6.514
				c-1.152-0.999-2.409-1.901-3.661-2.772c-0.913-0.635-1.935-0.916-2.815-1.618c-1.893-1.51-3.772-3.376-4.313-5.824
				c-0.167-0.755-0.197-1.534-0.171-2.307c0.178-5.24,2.806-10.676,5.361-15.143c3.335-5.832,7.986-22.727,7.986-22.727
				L185.876,316.627z"/>
			<path style="fill:#BA68C8;" d="M160.387,313.563l-2.555,8.005c0,0,2.319,4.497,9.483,7.105
				c7.164,2.608,11.315,2.053,11.315,2.053l3.624-7.269L160.387,313.563z"/>
			<path style="opacity:0.35;" d="M160.387,313.563l-2.555,8.005c0,0,2.319,4.497,9.483,7.105
				c7.164,2.608,11.315,2.053,11.315,2.053l3.624-7.269L160.387,313.563z"/>
			<g>
				<path style="fill:#263238;" d="M201.152,377.45c0,0-0.219,3.083-1.735,4.013c-4.233,2.294-10.386,3.127-18.959,0.108
					c-8.556-3.013-14.582-8.59-17.34-12.24c-2.758-3.65-4.369-6.164-8.931-9.213c-3.211-2.147-6.953-4.735-7.842-6.103
					c-0.889-1.368-0.043-4.036-0.043-4.036L201.152,377.45z"/>
				<path id="XMLID_00000092444705344312723350000015180560460100608133_" style="fill:#455A64;" d="M153.732,329.168
					c-0.572,0.071-1.002,0.293-1.335,0.786c-0.484,0.717-0.758,1.851-0.956,2.693c-0.457,1.952-1.604,3.811-2.426,5.64
					c-0.834,1.855-1.813,3.665-2.258,5.657c-0.463,2.069-0.613,4.197-0.433,6.311c1.021,3.027,4.283,4.348,7.731,6.716
					c3.523,2.418,7.265,6.469,10.406,10.565c3.251,4.239,10.983,9.802,16.667,11.267c6.725,1.733,14.824,1.703,17.33-0.749
					c3.101-3.035,4.849-8.292-3.957-15.244c-3.034-2.395-5.528-5.131-8.098-7.966c-2.198-2.425-4.411-4.819-6.136-7.617
					c-1.917-3.11-2.41-7.01-2.814-10.631c-0.059-0.53-0.118-1.083-0.408-1.53c-0.284-0.438-0.758-0.719-1.246-0.903
					c-0.81-0.305-1.686-0.38-2.551-0.427c-3.656-0.198-7.337,0.061-10.929,0.77c-0.971,0.192-2.063,0.506-2.599,1.416
					c-0.516,0.877-0.459,1.982-0.508,2.961c-0.049,0.977-0.719,1.429-1.601,0.64c-1.159-1.038-0.84-2.895-1.255-4.394
					c-0.499-1.799-2.232-3.089-1.725-5.911C154.632,329.219,153.992,329.136,153.732,329.168z"/>
				<path style="fill:#37474F;" d="M164.461,367.535c-1.38-1.8-2.879-3.582-4.422-5.23l0.002-0.008c0,0,9.935,9.758,15.469,7.991
					c3.565-1.139,2.257-4.174,2.872-4.663c3.567-2.838,12.241-5.207,15.699-3.245l0,0c10.261,6.524,8.667,9.457,7.071,15.07
					c-4.698,3.983-11.279,3.876-19.956,1.576C175.523,377.523,167.712,371.774,164.461,367.535z"/>
				<path style="fill:#37474F;" d="M178.151,363.204c-2.984-2.117-5.639-4.682-8.076-7.401c-3.462-3.864-6.509-8.091-9.304-12.456
					c-0.731-1.141-1.439-2.296-2.137-3.458c-0.274,0.084-0.625-0.009-1.023-0.365c-1.159-1.038-0.84-2.895-1.255-4.394
					c-0.499-1.799-2.232-3.089-1.725-5.911c0,0-0.639-0.083-0.899-0.051c-0.572,0.071-1.002,0.293-1.335,0.786
					c-0.484,0.717-0.758,1.851-0.956,2.693c0.743,1.872,1.44,2.298,2.083,4.105c1.058,2.972,4.351,8.834,9.675,15.495
					c5.103,6.386,14.007,14.838,15.802,15.066C180.796,367.541,183.725,367.16,178.151,363.204z"/>
				<g>
					<g>
						<path style="fill:#263238;" d="M177.992,366.134c-0.139-0.037-0.267-0.12-0.361-0.248c-0.216-0.292-0.167-0.701,0.112-0.916
							c2.259-1.748,11.922-4.851,16.67-3.149c0.357,0.126,0.56,0.51,0.452,0.854c-0.105,0.345-0.442,0.521-0.838,0.394
							c-4.445-1.598-13.705,1.567-15.502,2.958C178.369,366.15,178.172,366.182,177.992,366.134z"/>
					</g>
					<g>
						<path style="fill:#263238;" d="M173.374,361.327c-0.134-0.035-0.258-0.114-0.348-0.237c-0.206-0.28-0.152-0.678,0.118-0.888
							c2.212-1.712,11.626-4.797,16.219-3.192c0.344,0.119,0.537,0.489,0.428,0.823c-0.106,0.336-0.464,0.512-0.817,0.389
							c-4.299-1.504-13.321,1.635-15.081,2.997C173.74,361.339,173.548,361.372,173.374,361.327z"/>
					</g>
					<g>
						<path style="fill:#263238;" d="M168.909,356.887c-0.133-0.033-0.255-0.111-0.344-0.231c-0.203-0.275-0.145-0.667,0.126-0.876
							c2.217-1.702,11.608-4.811,16.15-3.251c0.341,0.115,0.528,0.479,0.417,0.809c-0.109,0.33-0.461,0.508-0.816,0.388
							c-4.254-1.46-13.253,1.697-15.016,3.052C169.274,356.896,169.083,356.93,168.909,356.887z"/>
					</g>
					<g>
						<path style="fill:#263238;" d="M165.806,352.306c-0.131-0.031-0.25-0.106-0.335-0.225c-0.196-0.271-0.134-0.66,0.135-0.87
							c2.202-1.718,11.497-4.91,15.925-3.428c0.333,0.11,0.512,0.468,0.399,0.796c-0.112,0.329-0.462,0.508-0.808,0.396
							c-4.157-1.391-13.054,1.849-14.806,3.216C166.164,352.311,165.976,352.347,165.806,352.306z"/>
					</g>
					<g>
						<path style="fill:#263238;" d="M162.156,346.816c-0.122-0.037-0.23-0.118-0.302-0.238c-0.17-0.282-0.076-0.675,0.206-0.877
							c3.233-2.321,12.75-4.138,16.977-2.386c0.318,0.13,0.459,0.504,0.315,0.832c-0.142,0.329-0.503,0.482-0.833,0.358
							c-3.814-1.592-12.966,0.153-15.845,2.217C162.512,346.84,162.32,346.867,162.156,346.816z"/>
					</g>
				</g>
			</g>
			<path style="fill:#BA68C8;" d="M213.994,256.032c-3.008-12.365-17.07-43.413-17.07-43.413s8.32-1.848,14.532-10.098
				c8.243-10.947,9.708-29.897,9.708-29.897h-67.877c-4.828,9.266-8.754,17.511-8.778,28.096
				c-0.017,7.491,0.995,16.949,11.216,33.113c7.968,12.601,15.403,23.529,19.964,30.35c-4.384,4.921-7.83,13.614-11.412,28.033
				c-2.145,8.638-5.422,17.829-3.89,21.347c0,0,6.87,12.246,21.388,10.128c5.654,0.264,10.183-11.333,24.381-37.793
				C211.126,276.636,217.076,268.702,213.994,256.032z"/>
			<path style="opacity:0.2;" d="M213.994,256.032c-3.008-12.365-17.07-43.413-17.07-43.413s8.32-1.848,14.532-10.098
				c8.243-10.947,9.708-29.897,9.708-29.897h-67.877c-4.828,9.266-8.754,17.511-8.778,28.096
				c-0.017,7.491,0.995,16.949,11.216,33.113c7.968,12.601,15.403,23.529,19.964,30.35c-4.384,4.921-7.83,13.614-11.412,28.033
				c-2.145,8.638-5.422,17.829-3.89,21.347c0,0,6.87,12.246,21.388,10.128c5.654,0.264,10.183-11.333,24.381-37.793
				C211.126,276.636,217.076,268.702,213.994,256.032z"/>
			<path style="opacity:0.3;" d="M171.063,173.664c0.086-0.348,0.18-0.693,0.27-1.04h-1.423c-0.514,1.914-0.978,3.842-1.39,5.781
				c-0.88,4.148-1.514,8.34-1.834,12.569c-0.32,4.235-0.31,8.499,0.133,12.725c0.22,2.099,0.551,4.184,0.986,6.249
				c0.388,1.841,0.843,3.674,1.01,5.553c0.181,2.04-0.008,4.211-1.273,5.904c-1.165,1.559-2.871,2.473-4.535,3.402
				c-0.542-1.191-1.061-2.392-1.545-3.609c-2.167-5.458-3.594-11.156-4.212-16.998c-1.144-10.808,0.523-21.518,4.451-31.577h-1.172
				c-3.608,8.494-5.185,17.892-4.9,27.072c0.179,5.766,1.135,11.505,2.85,17.013c1.739,5.586,4.246,10.902,7.094,16.003
				c2.85,5.104,6.035,10.011,9.211,14.916c1.618,2.499,3.235,4.999,4.805,7.528c0.794,1.279,1.577,2.565,2.34,3.862
				c0.752,1.279,1.6,2.566,2.212,3.919c0.678,1.501-0.811,2.739-1.646,3.857c-0.826,1.105-1.625,2.229-2.394,3.374
				c-1.599,2.383-3.071,4.85-4.424,7.38c-2.675,5.002-4.881,10.242-6.762,15.59c-2.675,7.607-4.674,15.422-6.408,23.294
				c0.33,0.378,0.701,0.777,1.11,1.185c0.242-1.156,0.485-2.313,0.748-3.464c1.29-5.645,2.74-11.258,4.499-16.776
				c3.515-11.025,8.349-21.768,15.475-30.955c0.76-0.98,1.625-2,1.263-3.326c-0.359-1.316-1.317-2.595-1.998-3.767
				c-1.447-2.491-2.964-4.941-4.509-7.372c-3.189-5.019-6.504-9.959-9.587-15.045c-2.173-3.585-4.224-7.257-6.013-11.051
				c1.525-0.684,3.006-1.488,4.239-2.63c1.343-1.244,2.199-2.914,2.479-4.719c0.613-3.934-0.887-7.916-1.497-11.762
				c-1.366-8.61-0.796-17.386,0.782-25.925C169.943,178.422,170.476,176.037,171.063,173.664z"/>
			<path style="opacity:0.2;" d="M178.75,267.619l-3.061-3.435c-4.383,4.921-7.83,13.614-11.412,28.033
				c-0.159,0.64-0.326,1.284-0.495,1.928C170.678,269.344,178.75,267.619,178.75,267.619z"/>
		</g>
		<g>
			<g>
				<g>
					<path style="fill:#37474F;" d="M264.15,239.491c-0.034-1.046-0.772-2.11-2.199-2.934l-9.22-5.323l-9.534,5.505l-0.003,5.503
						l9.22,5.323c2.807,1.62,7.216,1.702,9.849,0.181c1.295-0.748,1.912-1.742,1.871-2.751
						C264.134,244.996,264.183,240.502,264.15,239.491z"/>
					<path style="fill:#455A64;" d="M252.731,231.234l9.22,5.323c2.806,1.62,2.947,4.166,0.315,5.686
						c-2.633,1.52-7.043,1.439-9.849-0.182l-9.22-5.323L252.731,231.234z"/>
				</g>
			</g>
			<g id="Top_00000000206539689317523760000007702963392488721290_">
				<g>
					<g>
						<path style="fill:#263238;" d="M235.076,294.335c-1.917,0-3.982-0.608-6.074-1.816l-10.751-6.208
							c-1.26-0.727-1.69-2.337-0.964-3.597c0.725-1.262,2.34-1.69,3.597-0.964l10.751,6.208c1.965,1.135,3.749,1.404,4.893,0.745
							c1.143-0.661,1.8-2.341,1.8-4.609c0-5.963-4.271-13.36-9.326-16.278l-7.24-4.181c-3.691-2.131-5.724-5.122-5.724-8.424
							c0-3.302,2.033-6.294,5.724-8.425l50.188-29.048c6.707-3.871,17.212-3.87,23.919-0.001l7.238,4.181
							c6.707,3.87,11.96,12.968,11.96,20.713c0,4.387-1.574,7.644-4.433,9.294c-2.856,1.65-6.463,1.386-10.16-0.744l-10.751-6.208
							c-1.26-0.727-1.69-2.337-0.964-3.597c0.727-1.26,2.339-1.691,3.597-0.963l10.751,6.207c1.961,1.132,3.744,1.404,4.893,0.745
							c1.143-0.661,1.8-2.341,1.8-4.609c0-5.964-4.27-13.36-9.326-16.277l-7.238-4.181c-5.054-2.916-13.598-2.917-18.652,0.001
							l-50.188,29.047c-1.965,1.135-3.091,2.543-3.091,3.865c0,1.321,1.126,2.729,3.091,3.863l7.24,4.18
							c6.707,3.871,11.96,12.969,11.96,20.713c0,4.389-1.576,7.645-4.435,9.296C237.922,293.979,236.542,294.335,235.076,294.335z"
							/>
					</g>
				</g>
			</g>
		</g>
		<g id="Top_00000003807176140048284670000002939934200806842792_">
			<g id="Arm_00000034056847916854265110000006608469272680087191_">
				<g>
					<path style="fill:#37474F;" d="M307.096,207.642c-3.746-1.97-7.92-5.981-12.372-10.703c-7.667,1.487-11.574,6.13-12.48,13.291
						c5.461,3.779,10.683,7.413,14.077,9.866c5.3,3.831,1.607,5.775,4.801,8.13l11.288-12.883
						C312.411,215.344,309.961,209.148,307.096,207.642z"/>
					<path style="fill:#FFA8A7;" d="M288.942,190.67c-6.066-6.62-13.612-15.326-13.612-15.326s-4.187-13.212-7.467-25.069
						c-3.458-12.499-4.323-15.087-5.131-18.534c-2.934-12.519-14.867-15.614-22.771-16.462l-1.712,28.114
						c0,0,6.851,20.986,12.128,36.69c3.149,9.372,3.005,9.45,9.592,14.567c2.622,2.037,12.808,9.027,22.276,15.58
						c1.635-6.826,5.837-11.217,12.48-13.291C292.843,194.943,290.912,192.82,288.942,190.67z"/>
					<path style="fill:#455A64;" d="M247.021,171.753l-9.648-29.816l-2.118-28.253c8.242,1.287,15.627,2.687,20.286,6.406
						c4.659,3.719,6.346,7.566,8.669,15.099c2.712,8.798,11.834,39.346,11.834,39.346l15.68,18.562c0,0-5.82,0.495-10.249,6.47
						c-4.21,5.679-3.186,8.36-3.186,8.36s-16.364-10.646-21.441-14.381C251.771,189.812,251.001,184.053,247.021,171.753z"/>
				</g>
				<g id="Hand_00000127018761981842139540000017964359345260862598_">
					<g id="Hand_00000138547189361403542640000008137085654854915991_">
						<polygon style="fill:#F28F8F;" points="312.282,209.488 312.272,209.478 312.282,209.478 						"/>
						<path style="fill:#F28F8F;" d="M313.673,218.822c-0.547,3.966-2.405,4.652-3.698,5c0,1.869-1.372,3.171-3.479,3.25
							c-0.586,1.133-1.163,1.869-2.028,2.316c-0.109-0.02-0.239-0.05-0.358-0.07c-3.171-0.596-3.956-0.557-5.06-2.376
							c-1.093-1.819-1.59-5-0.954-7.127c0.636-2.127,2.922-3.658,3.588-2.107c0.507-4.324,2.813-7.614,9.681-7.018
							c1.392,0.129,1.004,2.326,1.004,2.326c0.209-0.199,0.348-0.417,0.427-0.666l0.169,0.895
							C312.968,213.245,317.212,216.158,313.673,218.822z"/>
						<path style="fill:#37474F;" d="M320.737,216.611c-0.917-5.917-0.651-8.973-10.039-12.028
							c-0.902,0.666,0.647,2.832,1.578,4.896l0.004,0.001l0.002,0.011c0.468,1.04,0.764,2.047,0.517,2.828l0.169,0.924
							c0,0,4.247,2.911,0.708,5.579c-0.547,3.962-2.406,4.654-3.7,4.995c0,1.877-1.374,3.171-3.477,3.252
							c-0.589,1.133-1.164,1.869-2.03,2.315c2.851,0.534,3.488,0.626,4.923-1.608c3.84-0.082,4.117-2.915,4.117-2.915
							c3.869-0.464,3.84-5.048,3.84-5.048S321.104,218.98,320.737,216.611z"/>
					</g>
					<path style="fill:#37474F;" d="M312.799,212.351v-0.03c0.079-0.268,0.109-0.557,0.079-0.865
						C312.918,211.784,312.898,212.082,312.799,212.351z"/>
					<path style="fill:#37474F;" d="M318.969,210.431l-4.718-5.591l-4.481,3.514c0,0-0.002,0.005-0.002,0.006
						c-0.411,0.364-0.577,0.998-0.394,1.815c0.36,1.613,1.931,3.321,3.508,3.816c0.697,0.219,1.268,0.151,1.669-0.119
						c0.008-0.001,0.032-0.003,0.032-0.003L318.969,210.431z"/>
					<path style="fill:#455A64;" d="M319.461,208.534c0.36,1.613-0.626,2.52-2.203,2.025c-1.577-0.495-3.147-2.203-3.508-3.816
						c-0.36-1.613,0.626-2.52,2.203-2.025C317.53,205.213,319.1,206.921,319.461,208.534z"/>
					<path style="fill:#FFA8A7;" d="M311.55,210.928c-0.955-0.202-2.521-0.348-3.489-0.234c-1.501,0.177-3.234,0.912-4.224,1.901
						c-0.259,1.525-0.134,3.073,0.002,4.365c0.354,3.356,4.103,5.322,4.806,2.45C309.098,217.558,310.773,213.421,311.55,210.928
						C311.496,210.916,311.603,210.94,311.55,210.928z"/>
					<path style="fill:#37474F;" d="M303.837,212.595c1.307-0.724,2.699-1.299,4.167-1.567c1.08-0.198,2.352-0.284,3.546-0.1
						c0.171-0.817,0.262-1.611,0.214-2.353c-0.223-3.429-0.134-4.836-4.386-5.652c-5.705-1.094-7.869-0.96-10.849-4.098l7.49,12.644
						C304.018,211.469,303.921,211.882,303.837,212.595z"/>
				</g>
			</g>
			<g id="Chest_00000054954423562317570220000001903489235577452720_">
				<path style="fill:#FAFAFA;" d="M185.817,203.526c-15.797,0-29.777-5.387-39.401-15.174c0.892-3.429,10.834-39.135,43.281-63.426
					c21.265-9.811,37.283-10.87,43.186-10.87c1.582,0,3.034,0.067,4.315,0.2c4.147,0.429,11.873,3.468,16.161,10.084
					c3.375,5.205,3.902,11.449,1.567,18.556c-3.669,11.17-15.722,22.224-22.924,28.829c-1.17,1.073-2.23,2.046-3.134,2.905
					l-0.076,0.073l-0.041,0.098c-0.374,0.901-0.579,2.27-0.816,3.855c-0.305,2.037-0.684,4.572-1.559,6.852
					C221.389,195.933,204.324,203.526,185.817,203.526z"/>
				<path style="fill:#E0E0E0;" d="M232.884,113.556l0,1h0.001c1.564,0,2.998,0.066,4.263,0.197c4.051,0.419,11.6,3.39,15.793,9.858
					c3.288,5.072,3.797,11.171,1.512,18.129c-3.628,11.045-15.62,22.044-22.785,28.615c-1.149,1.053-2.233,2.048-3.141,2.912
					l-0.153,0.146l-0.081,0.195c-0.398,0.958-0.607,2.356-0.85,3.974c-0.315,2.105-0.672,4.491-1.517,6.71
					c-4.947,10.278-21.804,17.734-40.107,17.734c-15.553,0-29.322-5.259-38.845-14.823c1.252-4.673,11.392-39.171,42.982-62.845
					c21.15-9.747,37.063-10.802,42.929-10.802L232.884,113.556 M232.883,113.556c-8.928,0-24.405,2.147-43.443,10.938
					c-34.528,25.822-43.577,64.007-43.577,64.007c10.716,11.032,25.693,15.525,39.955,15.525c18.556,0,35.896-7.613,41.027-18.339
					c1.56-4.067,1.548-8.717,2.37-10.695c6.658-6.33,21.897-18.877,26.187-31.939c6.509-19.816-10.622-28.515-18.152-29.293
					C236.045,113.633,234.584,113.556,232.883,113.556L232.883,113.556z"/>
			</g>
			<path style="fill:#E0E0E0;" d="M182.521,160.501c-1.845-23.275,25.89-42.543,27.282-43.494
				c-6.138,1.673-12.98,4.078-20.363,7.487c-34.528,25.822-43.577,64.007-43.577,64.007c24.658,25.385,71.908,16.156,80.982-2.814
				c1.559-4.067,1.548-8.717,2.37-10.695C207.236,185.092,184.414,184.374,182.521,160.501z"/>
			<g id="Head_00000098189902449525741100000015737599680380858755_">
				<path id="Hair_00000091008387056109274730000017506128853296258743_" style="fill:#37474F;" d="M214.391,121.209
					c-0.058-0.233,2.954-2.12,3.178-2.28c6.107-4.382,12.213-8.763,18.32-13.145c3.371-2.419,6.743-4.838,10.114-7.257
					c2.156-1.547,3.683-3.315,6.41-2.453c2.557,0.809,5.137-1.181,6.358-3.336c2.154-3.803,1.355-8.585-0.388-12.406
					c-1.019-2.234-2.595-4.252-4.669-5.566c-1.046-0.662-2.197-1.136-3.341-1.607c-1.434-0.59-2.798-1.325-4.201-1.932
					c-1.578-0.683-3.453-0.968-5.097-1.509c-3.85-1.268-7.958-1.572-11.987-1.378c-20.817,1.006-26.286,18.713-24.737,28.837
					c0.236,1.542,0.199,1.936,0.638,3.434c0.463,1.751,1.248,4.037,1.252,5.555c0.001,0.338-0.024,0.692-0.198,0.982
					c-0.384,0.637-1.272,0.685-2.015,0.66c0.717,1.088,2.093,1.7,3.381,1.506c-1.704,1.453-2.3,4.062-1.398,6.111
					c0.281-0.813,1.216-1.196,2.069-1.303c1.765-0.222,3.563,0.429,4.701,1.802C214.004,117.398,214.303,119.321,214.391,121.209z"
					/>
				<g id="Head_00000152978731109471843030000014964310547883586452_">
					<g id="XMLID_00000098934301639819194660000014082143982595562136_">
						<path style="fill:#FFA8A7;" d="M257.291,103.781c0.188,1.253,0.319,2.755,0.307,4.351
							c-0.098,13.023-8.19,15.613-10.635,16.518c-2.653,0.981-5.869,0.806-10.669-0.275l-5.47,4.726
							c2.878,10.821-16.257,14.213-20.954-12.141l7.179-7.714c0,0-2.151,2.501-6.139-0.224c-3.822-2.612-3.892-9.211-1.595-11.874
							c2.098-2.431,6.42-1.801,7.652,1.018c0.484,1.107,0.471,1.546,0.538,2.993c0.03,0.662-0.111,1.513,0.371,1.816
							c3.257,2.049,4.782-3.724,4.484-5.851c-0.131-0.934-0.155-2.042,0.574-2.641c0.404-0.332,0.949-0.419,1.462-0.52
							c1.274-0.251,2.578-0.697,3.448-1.662c2.182-2.422,0.627-6.758,2.82-9.169c0.949-1.043,2.441-1.469,3.848-1.383
							c1.407,0.086,2.747,0.628,4.001,1.271c0.981,0.502,2.15,1.078,3.12,0.556c0.341-0.184,0.603-0.482,0.879-0.754
							c1.991-1.951,5.181-2.562,7.752-1.485c4.299,1.8,5.663,6.23,6.242,10.264c0.143,1.001-0.373,4.245-0.276,5.184
							C256.549,99.915,256.737,100.09,257.291,103.781z"/>
					</g>
					<path style="fill:#9A4A4D;" d="M245.009,111.781c-0.311,0-0.618,0.088-0.931,0.093c-0.221,0.004-0.443-0.01-0.663-0.024
						c-0.411-0.027-0.823-0.072-1.225-0.168c-0.352-0.084-0.687-0.204-1.001-0.385c-0.153-0.088-0.293-0.189-0.435-0.294
						c-0.259-0.191-0.429-0.441-0.767-0.48c-0.109-0.013-0.221-0.014-0.32,0.045c-0.102,0.061-0.105,0.143-0.153,0.239
						c0.039,0.145,0.078,0.289,0.117,0.434c0.024,0.034,0.049,0.067,0.075,0.099c0.034,0.043,0.069,0.086,0.106,0.127
						c0.081,0.093,0.165,0.184,0.259,0.263c0.189,0.159,0.405,0.298,0.622,0.414c0.452,0.241,0.944,0.407,1.446,0.503
						c0.525,0.101,1.056,0.135,1.589,0.137c0.497,0.003,1.495,0.058,1.704-0.514C245.521,112.031,245.229,111.781,245.009,111.781z"
						/>
					<g>
						<path style="fill:#37474F;" d="M261.603,91.633c-3.347-0.175-7.852-0.092-10.517,0.706c-2.985,0.906-3.992,1.8-5.68,1.895
							c-1.809,0.092-3.032-0.686-6.354-1.266c-2.655-0.455-6.974-0.157-10.252,0.292c-1.139,0.067-2.149,0.382-2.046,1.576
							c0.245,1.117,1.185,1.255,1.517,2.155c0.87,3.114,1.69,8.162,7.44,8.162c10.763,0,6.245-9.13,10.223-8.884
							c1.449,0.191,1.681,1.712,2.131,3.833c0.238,1.122,0.704,2.228,1.34,2.703c3.806,2.766,9.598,0.968,10.959-2.063
							c0.731-1.47,0.882-4.813,1.674-6.096C262.805,94.037,263.28,91.887,261.603,91.633z M241.984,98.898
							c-0.119,0.647-0.237,2.688-1.061,3.496c-0.899,0.954-2.559,1.484-4.271,1.549c-2.313,0.087-4.719-0.67-5.517-2.416
							c-0.099-0.163-0.186-0.318-0.264-0.474c-0.606-1.293-1.717-5.159-0.916-5.998c1.462-1.411,9.159-1.622,11.638,0.33
							C242.282,96.064,242.23,97.588,241.984,98.898z M260.189,97.45c-0.159,0.918-0.316,3.824-3.182,4.924
							c-3.272,1.256-6.781,0.977-8.068-2.883c-1.587-4.762,0.693-5.939,6.576-6.645C260.398,92.645,260.78,93.63,260.189,97.45z"/>
					</g>
					<path style="fill:#37474F;" d="M227.127,93.767l-11.88,2.526c1.055,0.355,1.335,1.197,1.818,2.11l10.611-2.357L227.127,93.767z
						"/>
					<path style="fill:#F28F8F;" d="M252.115,104.997l-7.329,2.428l-0.995-8.47c0.21-1.465,0.591-2.782,2.137-2.687
						c0.165,0.024,0.311,0.067,0.448,0.14c0.85,0.596,3.203,3.889,4.278,5.783C251.166,103.079,251.649,104.019,252.115,104.997z"/>
					<g>
						<g id="XMLID_00000111177573232787459830000004353034438458574484_">
							<path id="XMLID_00000169526989548635075030000005429865437012864161_" style="fill:#263238;" d="M237.771,91.164l-5.402,0.89
								c-0.206-1.534,0.837-2.977,2.329-3.223C236.189,88.585,237.565,89.63,237.771,91.164z"/>
							<path id="XMLID_00000116193053511620730180000004465247215983288469_" style="fill:#263238;" d="M254.987,90.815l-5.437-0.94
								c0.205-1.523,1.589-2.547,3.09-2.287C254.141,87.846,255.192,89.291,254.987,90.815z"/>
							<path style="fill:#263238;" d="M239.059,98.403c0,1.105-0.896,2.001-2.001,2.001c-1.105,0-2.001-0.896-2.001-2.001
								s0.896-2.001,2.001-2.001C238.163,96.401,239.059,97.298,239.059,98.403z"/>
							<path style="fill:#263238;" d="M254.283,97.489c0,1.105-0.896,2.001-2.001,2.001c-1.105,0-2.001-0.896-2.001-2.001
								c0-1.105,0.896-2.001,2.001-2.001C253.387,95.488,254.283,96.384,254.283,97.489z"/>
						</g>
						<path id="XMLID_00000087405016874188458830000010392637789770098321_" style="fill:#F28F8F;" d="M236.289,124.372
							c-4.099-1.23-8.523-2.965-11.505-5.453c-2.368-1.976-3.67-4.617-4.289-6.501c0,0,0.134,6.151,3.123,9.027
							c2.988,2.876,10.359,4.945,10.359,4.945L236.289,124.372z"/>
					</g>
				</g>
				<g id="Helmet_00000069378580828751074980000002736258052157615784_">
					<path style="fill:#263238;" d="M220.652,85.247c0.508,11.728,1.329,25.752,2.987,30.152c2.19,5.808,8.456,7.545,8.456,7.545
						s-2.561,0.078-5.314-1.374c-2.753-1.453-4.554-2.785-6.25-7.835c-1.695-5.045-3.261-27.75-3.261-27.75L220.652,85.247z"/>
					<path style="fill:#263238;" d="M211.011,90.815c0,0,0.239,1.14,0.961,4.889c-0.6,0.168-1.51,0.46-2.204,1.027
						c-0.618,0.505-0.888,0.929-1.189,1.564c-0.703-3.007-1.158-5.275-1.158-5.275L211.011,90.815z"/>
					<path style="fill:#BA68C8;" d="M204.95,100.608c3.711-5.99,7.082-11.029,26.654-12.695c21.874-7.948,28.318,0.09,28.318,0.09
						s2.214,0.423,3.121-1.775c0.907-2.198-8.66-20.341-22.072-23.61c-13.816-3.367-27.703,0.132-35.934,9.781
						c-7.119,8.345-4.971,17.865-3.095,25.877c0.155,0.661,1.399,5.047,3.523,3.996C205.463,102.272,205.08,101.126,204.95,100.608z
						"/>
					<path style="opacity:0.2;" d="M208.277,69.162c-1.156,0.989-2.242,2.066-3.241,3.237c-7.119,8.345-4.971,17.865-3.095,25.877
						c0.155,0.661,1.399,5.047,3.523,3.996c0,0-0.383-1.146-0.513-1.664c2.79-4.503,5.389-8.467,14.82-10.867l8.623-7.71
						C224.794,76.429,215.985,71.249,208.277,69.162z"/>
					<path style="fill:#37474F;" d="M231.604,87.913c21.874-7.948,28.318,0.09,28.318,0.09s2.214,0.423,3.121-1.775
						c0.095-0.229,0.069-0.639-0.056-1.18c-3.891-7.054-21.325-5.808-32.754-1.109c-7.051,0.128-16.655,2.484-22.457,6.876
						c-3.008,2.277-4.408,4.346-5.834,7.461c0.123,0.524,0.933,3.383,2.322,4.023c0.389,0.201,0.9,0.2,1.201-0.026
						c0,0-0.344-1.143-0.474-1.661C208.7,94.621,212.032,89.579,231.604,87.913z"/>
					<path style="fill:#263238;" d="M218.77,85.567c2.829-0.979,15.528-6.294,27.021-7.145c7.855-0.581,15.735,1.283,17.195,6.625
						c-10.417-6.717-18.111-4.793-32.308-0.58C223.991,86.392,218.77,85.567,218.77,85.567z"/>
					<path style="fill:#263238;" d="M220.531,113.734c-2.035-1.157-6.158-3.44-6.158-3.44c1.373-0.113,2.153-0.574,2.676-1.048
						l3.624,1.915L220.531,113.734z"/>
				</g>
				<path style="fill:#B16668;" d="M222.337,108.99c0,1.31,0.689,2.914,1.258,4.067c0.576,1.168,1.307,2.457,2.518,3.021
					c0.916,0.426,1.84,0.854,2.823,1.09c1.618,0.388,3.223,0.152,4.365-1.129c1.271-1.426,1.462-3.429,2.34-5.068
					c0.409-0.763,0.739-1.443,1.537-1.842c0.933-0.467,2.011-0.579,3.035-0.678c0.943-0.091,1.885-0.183,2.827-0.274
					c0.201-0.02,0.43-0.03,0.577,0.109c0.113,0.107,0.144,0.278,0.133,0.434c-0.048,0.687-0.722,1.14-1.341,1.443
					c-0.546,0.267-1.108,0.504-1.681,0.708c-0.582,0.207-1.191,0.389-1.672,0.776c-0.631,0.507-0.957,1.295-1.224,2.059
					c-0.256,0.734-0.481,1.484-0.553,2.258c-0.059,0.63,0.016,1.336,0.478,1.768c0.23,0.215,0.534,0.337,0.842,0.404
					c1.16,0.252,2.451-0.302,3.068-1.317c0.212-0.349,0.357-0.751,0.661-1.023c0.473-0.422,1.179-0.407,1.811-0.369
					c0.128,0.008,0.259,0.016,0.374,0.071c0.456,0.213,0.355,0.874,0.483,1.36c0.17,0.652,0.871,1.067,1.545,1.072
					c0.674,0.004,1.31-0.326,1.838-0.745c0.907-0.718,1.582-1.724,1.905-2.835c0.32-1.103,0.223-2.451-0.661-3.183
					c-0.554-0.458-1.301-0.586-1.962-0.869c-0.691-0.297-1.302-0.778-1.752-1.38c-0.086-0.115-0.17-0.247-0.157-0.39
					c0.028-0.313,0.444-0.395,0.759-0.392c0.914,0.01,1.829,0.02,2.743,0.03c0.988,0.011,2.623-0.01,3.287,0.89
					c0.689,0.934,0.699,1.749,1.043,2.828c0.227,0.712,3.113,1.926,4.014-3.749c0.787,5.299,0.303,11.899-3.346,15.28
					c-3.604,3.34-9.233,4.189-14.594,4.035c-5.361-0.154-11.984-2.608-14.204-6.301C222.376,116.025,222.337,108.99,222.337,108.99z
					"/>
				<path style="fill:#263238;" d="M216.458,106.78c0,1.221-0.989,2.21-2.21,2.21c-1.22,0-2.21-0.989-2.21-2.21
					c0-1.22,0.989-2.21,2.21-2.21C215.469,104.57,216.458,105.56,216.458,106.78z"/>
			</g>
			<g id="Band_00000131339847000424326110000005791453244970677124_">
				<path style="fill:#BA68C8;" d="M215.247,111.183l-1.148,1.234c0,0,0.999,7.969,9.395,12.076
					c5.419,2.651,10.347,2.002,10.347,2.002s2.359,0.806,5.381,0.935c0,0,1.596,3.949-0.972,5.859
					c1.344,3.638,1.268,9.54-7.706,10.418c-6.916,0.676-15.94-3.642-20.848-11.578c-2.835-4.584-4.043-10.634-3.9-13.957
					c0.143-3.323,4.236-3.173,4.964-4.488C211.486,112.369,213.367,109.907,215.247,111.183z"/>
				<path style="opacity:0.2;" d="M238.249,133.29c-3.962,2.578-16.475,4.01-24.001-5.824
					C217.103,134.605,229.937,141.163,238.249,133.29z"/>
				<path style="opacity:0.2;" d="M212.126,134.678c-0.684-1.435-1.324-2.899-1.739-4.433c-0.635-2.349-0.725-4.843-0.261-7.232
					c0.24-1.235,0.825-2.635,2.054-2.902c0.459-0.1,1.011-0.048,1.315-0.406c0.205-0.241,0.216-0.586,0.245-0.902
					c0.089-0.964,0.491-1.953,1.295-2.493c0.08-0.054,0.167-0.096,0.254-0.138c-0.983-2.143-1.191-3.755-1.191-3.755l1.148-1.234
					c-1.88-1.276-3.76,1.186-4.488,2.501c-0.728,1.315-4.821,1.165-4.964,4.488c-0.143,3.323,1.065,9.373,3.9,13.957
					c0.938,1.517,2.029,2.9,3.225,4.143C212.646,135.744,212.381,135.213,212.126,134.678z"/>
			</g>
			<g id="Arm_00000103955374391674543390000017220558190412960915_">
				<path style="fill:#FFA8A7;" d="M224.513,228.62c-1.061-1.788-2.181-3.799-3.38-5.936c-9.302-16.585-14.307-27.9-14.307-27.9
					l-3.636-40.678c0,0-2.127-22.864-13.078-28.583c-6.826,2.695-11.969,5.703-15.32,13.979c-3.102,7.661-1.084,18.291-0.496,22.768
					c0.944,7.193,2.242,15.229,4.703,32.388c1.6,11.154,2.935,16.059,8.222,22.088c5.361,6.113,15.008,16.241,21.255,23.169
					C210.951,233.614,217.378,228.479,224.513,228.62z"/>
				<path style="fill:#37474F;" d="M246.892,249.153l-0.057,0.044c-1.211,0.716-3.023,0.165-4.734-1.563
					c-1.286-1.299-0.744-3.108-0.744-3.108l3.72-2.827c-2.848-2.098-3.886-3.028-6.897-3.796c-3.315-0.845-6.247-0.581-8.698-2.593
					c-1.542-1.266-3.169-3.656-4.968-6.69c-7.135-0.141-13.562,4.994-16.037,11.295c2.698,2.992,4.765,5.391,5.573,6.606
					c2.68,4.03,6.005,8.811,9.114,12.301c1.681,1.887,8.424,4.639,10.457,4.923c2.183,0.305,5.874-1.524,9.077-3.598
					c2.162-0.213,3.325-1.652,4.125-2.954c0.555,0.033,1,0.007,1.359-0.05C250.461,254.069,249.149,251.582,246.892,249.153z"/>
				<path style="fill:#FFA8A7;" d="M249.731,246.981l-2.839,2.172c2.257,2.429,3.569,4.916,1.288,7.991
					c0.533-0.085,0.873-0.24,1.069-0.388C251.776,254.847,251.111,251.896,249.731,246.981z"/>
				<path style="fill:#455A64;" d="M178.75,199.567c0,0-6.701-41.348-6.626-52.607c0.081-12.25,8.464-18.965,17.316-22.466
					c9.486,2.266,13.241,17.412,14.338,28.227c1.097,10.815,3.997,41.57,3.997,41.57l14.973,29.19c0,0-6.863,0.185-11.998,4.746
					c-5.134,4.561-6.722,7.622-6.722,7.622s-13.632-13.329-16.931-17.503C183.797,214.172,180.445,211.216,178.75,199.567z"/>
				<g>
					<path style="fill:#263238;" d="M239.34,259.351l-3.539-0.973l-0.027,0.073c1.107,0.531,2.229,1.026,3.366,1.487l2.408,0.927
						c0.363-0.22,0.723-0.445,1.077-0.674C241.519,259.972,240.423,259.68,239.34,259.351z"/>
					<path style="fill:#263238;" d="M238.528,262.174c-0.622-0.005-1.854-0.244-2.889-0.558l-3.476-1.054l-0.027,0.073
						c1.107,0.531,2.229,1.026,3.366,1.487l2.066,0.795c0.605-0.249,1.227-0.543,1.859-0.868
						C239.263,262.114,239.001,262.177,238.528,262.174z"/>
					<path style="fill:#263238;" d="M246.822,257.193c0.005,0,0.008,0,0.013,0c-1.159-0.222-2.304-0.531-3.437-0.875l-3.539-0.973
						l-0.027,0.073c1.107,0.531,2.229,1.026,3.366,1.487l3.023,1.163C246.442,257.78,246.643,257.484,246.822,257.193z"/>
				</g>
				<path style="fill:#263238;" d="M236.33,240.881c1.653,0.517,5.023,2.719,4.311,4.727l2.145-0.741
					C242.785,244.867,240.847,240.739,236.33,240.881z"/>
				<path style="fill:#263238;" d="M250.295,246.729l-4.718-5.592l-4.481,3.514c0,0-0.002,0.005-0.002,0.006
					c-0.411,0.364-0.577,0.998-0.394,1.815c0.36,1.613,1.931,3.321,3.508,3.816c0.697,0.219,1.268,0.151,1.669-0.119
					c0.008-0.001,0.032-0.003,0.032-0.003L250.295,246.729z"/>
				<path style="fill:#455A64;" d="M250.787,244.832c0.36,1.613-0.626,2.52-2.203,2.025c-1.577-0.495-3.147-2.203-3.508-3.816
					c-0.36-1.613,0.626-2.52,2.203-2.025C248.856,241.51,250.426,243.219,250.787,244.832z"/>
				<path style="fill:#BA68C8;" d="M240.478,254.185c-3.142-1.489-6.534-3.767-6.534-3.767c-1.807,3.093-5.717,7.408-8.25,8.699
					c0.819,0.882,3.296,2.177,6.602,3.37C232.296,262.487,238.708,258.07,240.478,254.185z"/>
			</g>
		</g>
	</g>
</g>
<g id="Speed_lines">
	<g id="Lines_00000090294841460522597220000005208464482947852988_">
		<g>
			<polygon style="fill:#FAFAFA;" points="152.615,334.464 167.969,342.9 183.244,351.473 213.67,368.835 243.919,386.501 
				258.982,395.443 273.963,404.525 258.608,396.091 243.333,387.517 212.908,370.154 182.66,352.485 167.598,343.543 			"/>
			<path style="fill:#FAFAFA;" d="M177.345,370.182c3.444,1.791,6.839,3.667,10.26,5.497l10.18,5.635
				c6.779,3.77,13.489,7.66,20.237,11.484c6.686,3.931,13.405,7.805,20.06,11.789l9.968,6.003c3.295,2.049,6.615,4.053,9.887,6.143
				c-3.445-1.79-6.84-3.665-10.261-5.495l-10.181-5.635c-6.777-3.774-13.489-7.659-20.235-11.486
				c-6.684-3.935-13.406-7.804-20.059-11.792l-9.968-6.003C183.939,374.274,180.617,372.27,177.345,370.182z"/>
		</g>
		<g>
			<path style="fill:#FAFAFA;" d="M114.765,278.399l-12.595-7.535c-8.407-5.006-16.879-9.901-25.316-14.854
				c-8.5-4.845-13.129-7.534-21.66-12.327l-9.076-5.079v1.01l8.492,5.08c8.405,5.009,13.046,7.678,21.482,12.634
				c8.498,4.849,16.963,9.755,25.492,14.551l12.809,7.167c4.297,2.341,8.569,4.727,12.889,7.028
				C123.132,283.474,118.936,280.959,114.765,278.399z"/>
			<path style="fill:#FAFAFA;" d="M50.393,262.984c2.26,1.117,4.471,2.318,6.708,3.475l6.627,3.612
				c4.418,2.41,8.775,4.924,13.131,7.438c4.338,2.546,8.675,5.094,12.953,7.744l6.414,3.98c2.11,1.375,4.246,2.704,6.332,4.119
				c-2.261-1.116-4.472-2.317-6.709-3.473l-6.628-3.612c-4.417-2.411-8.774-4.925-13.129-7.44
				c-4.338-2.547-8.675-5.095-12.951-7.746l-6.414-3.979C54.617,265.727,52.48,264.397,50.393,262.984z"/>
		</g>
	</g>
</g>
</svg>
